<svg width="69" height="61" viewBox="0 0 69 61" fill="none" xmlns="http://www.w3.org/2000/svg">
<path fill-rule="evenodd" clip-rule="evenodd" d="M53.3457 2.18046C52.5668 0.831487 51.1275 0.000488281 49.5698 0.000488281H19.4297C17.8721 0.000488281 16.4328 0.831486 15.6539 2.18045L0.583877 28.2825C-0.194951 29.6315 -0.194951 31.2935 0.583876 32.6425L15.6539 58.7446C16.4328 60.0935 17.8721 60.9245 19.4297 60.9245H49.5698C51.1275 60.9245 52.5668 60.0935 53.3457 58.7446L68.4157 32.6425C69.1945 31.2935 69.1945 29.6315 68.4157 28.2825L53.3457 2.18046ZM22.3644 5.12612C21.4135 5.12612 20.6426 5.89701 20.6426 6.84795C20.6426 7.79889 21.4135 8.56978 22.3644 8.56978H47.9459C48.8968 8.56978 49.6677 7.79889 49.6677 6.84795C49.6677 5.89701 48.8968 5.12612 47.9459 5.12612H22.3644Z" fill="white"/>
<g filter="url(#filter0_i_0_1)">
<path d="M24.9218 21.4122L32.7118 18.6242H39.0258V47.3242H31.6868V26.3322L26.6848 27.6032L24.9218 21.4122Z" fill="url(#paint0_linear_0_1)"/>
</g>
<defs>
<filter id="filter0_i_0_1" x="24.9218" y="18.624" width="15.5573" height="30.1535" filterUnits="userSpaceOnUse" color-interpolation-filters="sRGB">
<feFlood flood-opacity="0" result="BackgroundImageFix"/>
<feBlend mode="normal" in="SourceGraphic" in2="BackgroundImageFix" result="shape"/>
<feColorMatrix in="SourceAlpha" type="matrix" values="0 0 0 0 0 0 0 0 0 0 0 0 0 0 0 0 0 0 127 0" result="hardAlpha"/>
<feOffset dx="1.45331" dy="1.45331"/>
<feGaussianBlur stdDeviation="0.726656"/>
<feComposite in2="hardAlpha" operator="arithmetic" k2="-1" k3="1"/>
<feColorMatrix type="matrix" values="0 0 0 0 1 0 0 0 0 1 0 0 0 0 1 0 0 0 0.22 0"/>
<feBlend mode="normal" in2="shape" result="effect1_innerShadow_0_1"/>
</filter>
<linearGradient id="paint0_linear_0_1" x1="33.2051" y1="18.3242" x2="33.5349" y2="49.5796" gradientUnits="userSpaceOnUse">
<stop stop-color="#C24843"/>
<stop offset="0.24662" stop-color="#AE304A"/>
<stop offset="0.531796" stop-color="#752E72"/>
<stop offset="1" stop-color="#1A538B"/>
</linearGradient>
</defs>
</svg>
