<svg width="34" height="20" viewBox="0 0 34 20" fill="none" xmlns="http://www.w3.org/2000/svg">
<path d="M0 0H29C31.7614 0 34 2.23858 34 5V15C34 17.7614 31.7614 20 29 20H5C2.23858 20 0 17.7614 0 15V0Z" fill="#E96F94"/>
<path d="M6.169 6.745L8.561 5.9L9.861 5.9L9.861 15L8.366 15L8.366 7.499L6.533 8.019L6.169 6.745ZM13.2679 9.332L14.4119 9.332C15.2786 9.332 16.0109 9.592 16.6089 10.112C17.2069 10.6233 17.5059 11.334 17.5059 12.244C17.5059 13.154 17.1982 13.869 16.5829 14.389C15.9762 14.909 15.2222 15.169 14.3209 15.169C13.5842 15.169 12.9429 15 12.3969 14.662C11.8509 14.324 11.4609 13.843 11.2269 13.219L12.5139 12.478C12.7652 13.3013 13.3676 13.713 14.3209 13.713C14.8322 13.713 15.2396 13.583 15.5429 13.323C15.8549 13.0543 16.0109 12.6947 16.0109 12.244C16.0109 11.802 15.8592 11.451 15.5559 11.191C15.2526 10.9223 14.8496 10.788 14.3469 10.788L11.6949 10.788L12.0459 5.9L17.1159 5.9L17.1159 7.304L13.4239 7.304L13.2679 9.332ZM21.957 6.329C22.3643 6.73633 22.568 7.23033 22.568 7.811C22.568 8.39167 22.3643 8.88567 21.957 9.293C21.5583 9.69167 21.0557 9.891 20.449 9.891C19.8337 9.891 19.3267 9.69167 18.928 9.293C18.5207 8.88567 18.317 8.39167 18.317 7.811C18.317 7.239 18.5207 6.74933 18.928 6.342C19.3353 5.93467 19.8423 5.731 20.449 5.731C21.0557 5.731 21.5583 5.93033 21.957 6.329ZM20.436 8.747C20.7133 8.747 20.9387 8.66033 21.112 8.487C21.2853 8.305 21.372 8.07967 21.372 7.811C21.372 7.54233 21.2853 7.317 21.112 7.135C20.9387 6.953 20.7133 6.862 20.436 6.862C20.1673 6.862 19.9463 6.953 19.773 7.135C19.5997 7.317 19.513 7.54233 19.513 7.811C19.513 8.071 19.5997 8.292 19.773 8.474C19.955 8.656 20.176 8.747 20.436 8.747ZM19.786 14.077L19.084 13.661L25.077 6.992L25.779 7.395L19.786 14.077ZM24.609 15.156C23.9937 15.156 23.4867 14.9567 23.088 14.558C22.6807 14.1507 22.477 13.6567 22.477 13.076C22.477 12.504 22.6807 12.0143 23.088 11.607C23.4953 11.1997 24.0023 10.996 24.609 10.996C25.207 10.996 25.7097 11.1997 26.117 11.607C26.5243 12.0143 26.728 12.504 26.728 13.076C26.728 13.6567 26.5243 14.1507 26.117 14.558C25.7183 14.9567 25.2157 15.156 24.609 15.156ZM24.596 14.012C24.8733 14.012 25.0987 13.9253 25.272 13.752C25.4453 13.57 25.532 13.3447 25.532 13.076C25.532 12.8073 25.4453 12.582 25.272 12.4C25.0987 12.218 24.8733 12.127 24.596 12.127C24.3273 12.127 24.1063 12.218 23.933 12.4C23.7597 12.582 23.673 12.8073 23.673 13.076C23.673 13.336 23.7597 13.557 23.933 13.739C24.115 13.921 24.336 14.012 24.596 14.012Z" fill="white"/>
</svg>
