<svg width="59" height="53" viewBox="0 0 59 53" fill="none" xmlns="http://www.w3.org/2000/svg">
<path fill-rule="evenodd" clip-rule="evenodd" d="M45.6157 1.86453C44.9498 0.711057 43.7191 0.000488281 42.3871 0.000488281H16.615C15.2831 0.000488281 14.0524 0.711056 13.3864 1.86453L0.500384 24.1838C-0.165574 25.3373 -0.165574 26.7584 0.500383 27.9119L13.3864 50.2312C14.0524 51.3847 15.2831 52.0952 16.615 52.0952H42.3871C43.7191 52.0952 44.9498 51.3847 45.6157 50.2312L58.5018 27.9119C59.1678 26.7584 59.1678 25.3373 58.5018 24.1838L45.6157 1.86453ZM19.1227 4.38391C18.3096 4.38391 17.6504 5.04308 17.6504 5.85621C17.6504 6.66933 18.3095 7.3285 19.1227 7.3285H40.9968C41.8099 7.3285 42.4691 6.66933 42.4691 5.85621C42.4691 5.04308 41.8099 4.38391 40.9968 4.38391H19.1227Z" fill="white"/>
<g filter="url(#filter0_i_0_1)">
<path d="M38.592 41.9121H21.442V37.3621L29.562 28.7871C30.4487 27.8304 31.0554 27.0954 31.382 26.5821C31.732 26.0454 31.907 25.5204 31.907 25.0071C31.907 24.3771 31.7087 23.8871 31.312 23.5371C30.9387 23.1638 30.4137 22.9771 29.737 22.9771C28.267 22.9771 27.1704 23.8288 26.447 25.5321L21.057 22.5221C21.827 20.7254 22.9704 19.3371 24.487 18.3571C26.027 17.3771 27.7537 16.8871 29.667 16.8871C32.0004 16.8871 33.9954 17.5871 35.652 18.9871C37.332 20.3638 38.172 22.2538 38.172 24.6571C38.172 26.0104 37.857 27.2938 37.227 28.5071C36.597 29.6971 35.6054 30.9921 34.252 32.3921L30.927 35.8571H38.592V41.9121Z" fill="url(#paint0_linear_0_1)"/>
</g>
<defs>
<filter id="filter0_i_0_1" x="21.057" y="16.8872" width="18.7777" height="26.2676" filterUnits="userSpaceOnUse" color-interpolation-filters="sRGB">
<feFlood flood-opacity="0" result="BackgroundImageFix"/>
<feBlend mode="normal" in="SourceGraphic" in2="BackgroundImageFix" result="shape"/>
<feColorMatrix in="SourceAlpha" type="matrix" values="0 0 0 0 0 0 0 0 0 0 0 0 0 0 0 0 0 0 127 0" result="hardAlpha"/>
<feOffset dx="1.24269" dy="1.24269"/>
<feGaussianBlur stdDeviation="0.621346"/>
<feComposite in2="hardAlpha" operator="arithmetic" k2="-1" k3="1"/>
<feColorMatrix type="matrix" values="0 0 0 0 1 0 0 0 0 1 0 0 0 0 1 0 0 0 0.22 0"/>
<feBlend mode="normal" in2="shape" result="effect1_innerShadow_0_1"/>
</filter>
<linearGradient id="paint0_linear_0_1" x1="30.1406" y1="16.9121" x2="30.3599" y2="43.8576" gradientUnits="userSpaceOnUse">
<stop stop-color="#C24843"/>
<stop offset="0.24662" stop-color="#AE304A"/>
<stop offset="0.531796" stop-color="#752E72"/>
<stop offset="1" stop-color="#1A538B"/>
</linearGradient>
</defs>
</svg>
