<svg width="34" height="21" viewBox="0 0 34 21" fill="none" xmlns="http://www.w3.org/2000/svg">
<path d="M0 0H29C31.7614 0 34 2.23858 34 5V16C34 18.7614 31.7614 21 29 21H5C2.23858 21 0 18.7614 0 16V0Z" fill="#E96F94"/>
<path d="M12.396 15L6.403 15L6.403 13.83L9.575 10.593C10.3463 9.82167 10.732 9.15433 10.732 8.591C10.732 8.15767 10.602 7.81533 10.342 7.564C10.082 7.31267 9.744 7.187 9.328 7.187C8.56533 7.187 8.002 7.564 7.638 8.318L6.377 7.577C6.65433 6.979 7.053 6.524 7.573 6.212C8.093 5.89133 8.67367 5.731 9.315 5.731C10.121 5.731 10.8057 5.98233 11.369 6.485C11.941 6.99633 12.227 7.681 12.227 8.539C12.227 9.45767 11.7113 10.4457 10.68 11.503L8.626 13.557L12.396 13.557L12.396 15ZM19.2769 15L13.2839 15L13.2839 13.83L16.4559 10.593C17.2272 9.82167 17.6129 9.15433 17.6129 8.591C17.6129 8.15767 17.4829 7.81533 17.2229 7.564C16.9629 7.31267 16.6249 7.187 16.2089 7.187C15.4462 7.187 14.8829 7.564 14.5189 8.318L13.2579 7.577C13.5352 6.979 13.9339 6.524 14.4539 6.212C14.9739 5.89133 15.5545 5.731 16.1959 5.731C17.0019 5.731 17.6865 5.98233 18.2499 6.485C18.8219 6.99633 19.1079 7.681 19.1079 8.539C19.1079 9.45767 18.5922 10.4457 17.5609 11.503L15.5069 13.557L19.2769 13.557L19.2769 15ZM23.9248 6.329C24.3321 6.73633 24.5358 7.23033 24.5358 7.811C24.5358 8.39167 24.3321 8.88567 23.9248 9.293C23.5261 9.69167 23.0234 9.891 22.4168 9.891C21.8014 9.891 21.2944 9.69167 20.8958 9.293C20.4884 8.88567 20.2848 8.39167 20.2848 7.811C20.2848 7.239 20.4884 6.74933 20.8958 6.342C21.3031 5.93467 21.8101 5.731 22.4168 5.731C23.0234 5.731 23.5261 5.93033 23.9248 6.329ZM22.4038 8.747C22.6811 8.747 22.9064 8.66033 23.0798 8.487C23.2531 8.305 23.3398 8.07967 23.3398 7.811C23.3398 7.54233 23.2531 7.317 23.0798 7.135C22.9064 6.953 22.6811 6.862 22.4038 6.862C22.1351 6.862 21.9141 6.953 21.7408 7.135C21.5674 7.317 21.4808 7.54233 21.4808 7.811C21.4808 8.071 21.5674 8.292 21.7408 8.474C21.9228 8.656 22.1438 8.747 22.4038 8.747ZM21.7538 14.077L21.0518 13.661L27.0448 6.992L27.7468 7.395L21.7538 14.077ZM26.5768 15.156C25.9614 15.156 25.4544 14.9567 25.0558 14.558C24.6484 14.1507 24.4448 13.6567 24.4448 13.076C24.4448 12.504 24.6484 12.0143 25.0558 11.607C25.4631 11.1997 25.9701 10.996 26.5768 10.996C27.1748 10.996 27.6774 11.1997 28.0848 11.607C28.4921 12.0143 28.6958 12.504 28.6958 13.076C28.6958 13.6567 28.4921 14.1507 28.0848 14.558C27.6861 14.9567 27.1834 15.156 26.5768 15.156ZM26.5638 14.012C26.8411 14.012 27.0664 13.9253 27.2398 13.752C27.4131 13.57 27.4998 13.3447 27.4998 13.076C27.4998 12.8073 27.4131 12.582 27.2398 12.4C27.0664 12.218 26.8411 12.127 26.5638 12.127C26.2951 12.127 26.0741 12.218 25.9008 12.4C25.7274 12.582 25.6408 12.8073 25.6408 13.076C25.6408 13.336 25.7274 13.557 25.9008 13.739C26.0828 13.921 26.3038 14.012 26.5638 14.012Z" fill="white"/>
</svg>
