<svg width="59" height="53" viewBox="0 0 59 53" fill="none" xmlns="http://www.w3.org/2000/svg">
<path fill-rule="evenodd" clip-rule="evenodd" d="M45.6157 1.86453C44.9498 0.711057 43.7191 0.000488281 42.3871 0.000488281H16.615C15.2831 0.000488281 14.0524 0.711056 13.3864 1.86453L0.500384 24.1838C-0.165574 25.3373 -0.165574 26.7584 0.500383 27.9119L13.3864 50.2312C14.0524 51.3847 15.2831 52.0952 16.615 52.0952H42.3871C43.7191 52.0952 44.9498 51.3847 45.6157 50.2312L58.5018 27.9119C59.1678 26.7584 59.1678 25.3373 58.5018 24.1838L45.6157 1.86453ZM19.1227 4.38391C18.3096 4.38391 17.6504 5.04308 17.6504 5.85621C17.6504 6.66933 18.3095 7.3285 19.1227 7.3285H40.9968C41.8099 7.3285 42.4691 6.66933 42.4691 5.85621C42.4691 5.04308 41.8099 4.38391 40.9968 4.38391H19.1227Z" fill="white"/>
<g filter="url(#filter0_i_0_1)">
<path d="M36.5821 23.5893L32.4871 28.6293C34.0738 29.1193 35.3338 29.971 36.2671 31.1843C37.2238 32.3743 37.7021 33.7976 37.7021 35.4543C37.7021 38.0676 36.8388 40.0976 35.1121 41.5443C33.4088 42.9676 31.2738 43.6793 28.7071 43.6793C26.6305 43.6793 24.8105 43.2126 23.2471 42.2793C21.6838 41.3226 20.5638 39.946 19.8871 38.1493L25.3471 35.0343C25.8605 36.7376 26.9805 37.5893 28.7071 37.5893C29.5938 37.5893 30.2705 37.3793 30.7371 36.9593C31.2271 36.5393 31.4721 35.9793 31.4721 35.2793C31.4721 34.5793 31.2271 34.031 30.7371 33.6343C30.2705 33.2143 29.5938 33.0043 28.7071 33.0043H27.3771L24.9621 29.4343L28.8821 24.6393H20.6571V18.6543H36.5821V23.5893Z" fill="url(#paint0_linear_0_1)"/>
</g>
<defs>
<filter id="filter0_i_0_1" x="19.8871" y="18.6543" width="19.0577" height="26.2676" filterUnits="userSpaceOnUse" color-interpolation-filters="sRGB">
<feFlood flood-opacity="0" result="BackgroundImageFix"/>
<feBlend mode="normal" in="SourceGraphic" in2="BackgroundImageFix" result="shape"/>
<feColorMatrix in="SourceAlpha" type="matrix" values="0 0 0 0 0 0 0 0 0 0 0 0 0 0 0 0 0 0 127 0" result="hardAlpha"/>
<feOffset dx="1.24269" dy="1.24269"/>
<feGaussianBlur stdDeviation="0.621346"/>
<feComposite in2="hardAlpha" operator="arithmetic" k2="-1" k3="1"/>
<feColorMatrix type="matrix" values="0 0 0 0 1 0 0 0 0 1 0 0 0 0 1 0 0 0 0.22 0"/>
<feBlend mode="normal" in2="shape" result="effect1_innerShadow_0_1"/>
</filter>
<linearGradient id="paint0_linear_0_1" x1="29.0195" y1="18.1543" x2="29.2279" y2="45.1" gradientUnits="userSpaceOnUse">
<stop stop-color="#C24843"/>
<stop offset="0.24662" stop-color="#AE304A"/>
<stop offset="0.531796" stop-color="#752E72"/>
<stop offset="1" stop-color="#1A538B"/>
</linearGradient>
</defs>
</svg>
