<?xml version="1.0"?>
<svg width="68" height="29" xmlns="http://www.w3.org/2000/svg" xmlns:svg="http://www.w3.org/2000/svg">
 <g class="layer">
  <title>Layer 1</title>
  <path d="m1,-0.01l58,0c5.52,0 10,4.48 10,10l0,9c0,5.53 -4.48,10 -10,10l-48,0c-5.52,0 -10,-4.47 -10,-10l0,-19z" fill="#4B5654" id="svg_1"/>
  <path d="m11.87,13.27l1.76,0c1.34,0 2.46,0.4 3.38,1.2c0.92,0.79 1.38,1.88 1.38,3.28c0,1.4 -0.47,2.5 -1.42,3.3c-0.93,0.8 -2.09,1.2 -3.48,1.2c-1.13,0 -2.12,-0.26 -2.96,-0.78c-0.84,-0.52 -1.44,-1.26 -1.8,-2.22l1.98,-1.14c0.39,1.27 1.32,1.9 2.78,1.9c0.79,0 1.42,-0.2 1.88,-0.6c0.48,-0.41 0.72,-0.96 0.72,-1.66c0,-0.68 -0.23,-1.22 -0.7,-1.62c-0.46,-0.41 -1.08,-0.62 -1.86,-0.62l-4.08,0l0.54,-7.52l7.8,0l0,2.16l-5.68,0l-0.24,3.12zm17.19,7c-0.96,1.32 -2.31,1.98 -4.04,1.98c-1.72,0 -3.07,-0.66 -4.06,-1.98c-0.96,-1.32 -1.44,-3.08 -1.44,-5.28c0,-2.2 0.48,-3.96 1.44,-5.28c0.99,-1.32 2.34,-1.98 4.06,-1.98c1.73,0 3.08,0.66 4.04,1.98c0.97,1.31 1.46,3.07 1.46,5.28c0,2.22 -0.49,3.98 -1.46,5.28zm-4.04,-0.26c1.04,0 1.83,-0.43 2.38,-1.3c0.55,-0.86 0.82,-2.1 0.82,-3.72c0,-1.61 -0.27,-2.85 -0.82,-3.72c-0.55,-0.86 -1.34,-1.3 -2.38,-1.3c-1.03,0 -1.82,0.44 -2.38,1.3c-0.55,0.87 -0.82,2.11 -0.82,3.72c0,1.62 0.27,2.86 0.82,3.72c0.56,0.87 1.35,1.3 2.38,1.3zm16.64,0.26c-0.96,1.32 -2.31,1.98 -4.04,1.98c-1.72,0 -3.08,-0.66 -4.06,-1.98c-0.96,-1.32 -1.44,-3.08 -1.44,-5.28c0,-2.2 0.48,-3.96 1.44,-5.28c0.98,-1.32 2.34,-1.98 4.06,-1.98c1.73,0 3.08,0.66 4.04,1.98c0.97,1.31 1.46,3.07 1.46,5.28c0,2.22 -0.49,3.98 -1.46,5.28zm-4.04,-0.26c1.04,0 1.83,-0.43 2.38,-1.3c0.54,-0.86 0.82,-2.1 0.82,-3.72c0,-1.61 -0.28,-2.85 -0.82,-3.72c-0.55,-0.86 -1.34,-1.3 -2.38,-1.3c-1.03,0 -1.82,0.44 -2.38,1.3c-0.55,0.87 -0.82,2.11 -0.82,3.72c0,1.62 0.27,2.86 0.82,3.72c0.56,0.87 1.35,1.3 2.38,1.3zm18.35,-3.12l-2.86,0l0,1.34l4.7,0l0,1.56l-4.7,0l0,2.2l-2.3,0l0,-2.2l-1.6,0l0,-1.56l1.6,0l0,-1.34l-1.6,0l0,-2.06l1.6,0l0,-6.84l5.16,0c1.27,0 2.34,0.44 3.22,1.32c0.88,0.86 1.32,1.92 1.32,3.18c0,1.24 -0.44,2.29 -1.32,3.14c-0.88,0.84 -1.95,1.26 -3.22,1.26zm0,-6.74l-2.86,0l0,4.68l2.86,0c0.64,0 1.17,-0.22 1.58,-0.68c0.44,-0.45 0.66,-1 0.66,-1.66c0,-0.65 -0.22,-1.2 -0.66,-1.66c-0.41,-0.45 -0.94,-0.68 -1.58,-0.68z" fill="#4B5654" id="svg_2">₴</path>
  <text fill="#ffffff" font-family="Serif" font-size="22" id="svg_3" stroke-width="0" text-anchor="middle" transform="matrix(1 2.87040e-8 -2.87040e-8 1 -0.00000189055 -0.00000191064)" x="51.56" xml:space="preserve" y="22.14">₴</text>
  <path d="m54.9,12.14c0,2.01 -0.01,2.8 0.07,3.83c0.06,0.72 0.22,1.5 0.36,2.54c0.12,0.94 0.22,1.66 0.45,2.46c0.2,0.68 0.55,1.97 0.83,1.6c0.26,-0.34 0.05,-1.64 0.05,-2.6c0,-0.95 0,-1.84 0,-2.59c0,-0.9 0,-1.65 0,-2.83c0,-0.69 0.01,-1.69 0,-2.61c-0.01,-0.86 -0.18,-1.68 -0.35,-2.32c-0.24,-0.87 -0.43,-1.64 -0.6,-2.24c-0.24,-0.83 -0.6,-1.22 -0.91,-1.67l-0.42,-0.45" fill="none" id="svg_7"/>
  <text fill="#ffffff" font-family="Serif" font-size="20" id="svg_8" stroke-width="0" text-anchor="middle" x="24.56" xml:space="preserve" y="21.14">500</text>
 </g>
</svg>