<svg width="59" height="53" viewBox="0 0 59 53" fill="none" xmlns="http://www.w3.org/2000/svg">
<path fill-rule="evenodd" clip-rule="evenodd" d="M45.6157 1.86453C44.9498 0.711057 43.7191 0.000488281 42.3871 0.000488281H16.615C15.2831 0.000488281 14.0524 0.711056 13.3864 1.86453L0.500384 24.1838C-0.165574 25.3373 -0.165574 26.7584 0.500383 27.9119L13.3864 50.2312C14.0524 51.3847 15.2831 52.0952 16.615 52.0952H42.3871C43.7191 52.0952 44.9498 51.3847 45.6157 50.2312L58.5018 27.9119C59.1678 26.7584 59.1678 25.3373 58.5018 24.1838L45.6157 1.86453ZM19.1227 4.38391C18.3096 4.38391 17.6504 5.04308 17.6504 5.85621C17.6504 6.66933 18.3095 7.3285 19.1227 7.3285H40.9968C41.8099 7.3285 42.4691 6.66933 42.4691 5.85621C42.4691 5.04308 41.8099 4.38391 40.9968 4.38391H19.1227Z" fill="white"/>
<g filter="url(#filter0_i_0_1)">
<path d="M35.6421 18.0342L30.4621 25.8392C32.8421 26.1658 34.7437 27.0992 36.1671 28.6392C37.5904 30.1558 38.3021 32.0808 38.3021 34.4142C38.3021 36.9575 37.4504 39.0342 35.7471 40.6442C34.0204 42.2542 31.7804 43.0592 29.0271 43.0592C26.2737 43.0592 24.0337 42.2542 22.3071 40.6442C20.6037 39.0342 19.7521 36.9575 19.7521 34.4142C19.7521 32.5242 20.2654 30.8325 21.2921 29.3392L28.5371 18.0342H35.6421ZM29.0271 37.3192C29.9137 37.3192 30.6371 37.0625 31.1971 36.5492C31.7571 36.0125 32.0371 35.3008 32.0371 34.4142C32.0371 33.4808 31.7571 32.7575 31.1971 32.2442C30.6604 31.7308 29.9371 31.4742 29.0271 31.4742C28.1171 31.4742 27.3937 31.7308 26.8571 32.2442C26.2971 32.7575 26.0171 33.4808 26.0171 34.4142C26.0171 35.3242 26.2854 36.0358 26.8221 36.5492C27.3821 37.0625 28.1171 37.3192 29.0271 37.3192Z" fill="url(#paint0_linear_0_1)"/>
</g>
<defs>
<filter id="filter0_i_0_1" x="19.752" y="18.0342" width="19.7927" height="26.2676" filterUnits="userSpaceOnUse" color-interpolation-filters="sRGB">
<feFlood flood-opacity="0" result="BackgroundImageFix"/>
<feBlend mode="normal" in="SourceGraphic" in2="BackgroundImageFix" result="shape"/>
<feColorMatrix in="SourceAlpha" type="matrix" values="0 0 0 0 0 0 0 0 0 0 0 0 0 0 0 0 0 0 127 0" result="hardAlpha"/>
<feOffset dx="1.24269" dy="1.24269"/>
<feGaussianBlur stdDeviation="0.621346"/>
<feComposite in2="hardAlpha" operator="arithmetic" k2="-1" k3="1"/>
<feColorMatrix type="matrix" values="0 0 0 0 1 0 0 0 0 1 0 0 0 0 1 0 0 0 0.22 0"/>
<feBlend mode="normal" in2="shape" result="effect1_innerShadow_0_1"/>
</filter>
<linearGradient id="paint0_linear_0_1" x1="29.0195" y1="17.5342" x2="29.2279" y2="44.4799" gradientUnits="userSpaceOnUse">
<stop stop-color="#C24843"/>
<stop offset="0.24662" stop-color="#AE304A"/>
<stop offset="0.531796" stop-color="#752E72"/>
<stop offset="1" stop-color="#1A538B"/>
</linearGradient>
</defs>
</svg>
