<svg width="59" height="53" viewBox="0 0 59 53" fill="none" xmlns="http://www.w3.org/2000/svg">
<path fill-rule="evenodd" clip-rule="evenodd" d="M45.6157 1.86453C44.9498 0.711057 43.7191 0.000488281 42.3871 0.000488281H16.615C15.2831 0.000488281 14.0524 0.711056 13.3864 1.86453L0.500384 24.1838C-0.165574 25.3373 -0.165574 26.7584 0.500383 27.9119L13.3864 50.2312C14.0524 51.3847 15.2831 52.0952 16.615 52.0952H42.3871C43.7191 52.0952 44.9498 51.3847 45.6157 50.2312L58.5018 27.9119C59.1678 26.7584 59.1678 25.3373 58.5018 24.1838L45.6157 1.86453ZM19.1227 4.38391C18.3096 4.38391 17.6504 5.04308 17.6504 5.85621C17.6504 6.66933 18.3095 7.3285 19.1227 7.3285H40.9968C41.8099 7.3285 42.4691 6.66933 42.4691 5.85621C42.4691 5.04308 41.8099 4.38391 40.9968 4.38391H19.1227Z" fill="white"/>
<g filter="url(#filter0_i_0_1)">
<path d="M34.9112 29.7232C37.0812 31.0765 38.1662 33.0482 38.1662 35.6382C38.1662 37.9482 37.3612 39.7565 35.7512 41.0632C34.1645 42.3699 31.9245 43.0232 29.0312 43.0232C26.1145 43.0232 23.8512 42.3699 22.2412 41.0632C20.6545 39.7565 19.8612 37.9482 19.8612 35.6382C19.8612 33.0482 20.9462 31.0765 23.1162 29.7232C21.5062 28.5332 20.7012 26.8999 20.7012 24.8232C20.7012 22.5365 21.4828 20.7515 23.0462 19.4682C24.6095 18.1849 26.6045 17.5432 29.0312 17.5432C31.4112 17.5432 33.3945 18.1965 34.9812 19.5032C36.5445 20.7865 37.3262 22.5599 37.3262 24.8232C37.3262 26.8999 36.5212 28.5332 34.9112 29.7232ZM29.0312 23.2132C28.2845 23.2132 27.6895 23.4115 27.2462 23.8082C26.8262 24.1815 26.6162 24.6832 26.6162 25.3132C26.6162 25.9665 26.8262 26.4799 27.2462 26.8532C27.6895 27.2265 28.2845 27.4132 29.0312 27.4132C29.7312 27.4132 30.3028 27.2265 30.7462 26.8532C31.1895 26.4565 31.4112 25.9432 31.4112 25.3132C31.4112 24.6832 31.1895 24.1815 30.7462 23.8082C30.3028 23.4115 29.7312 23.2132 29.0312 23.2132ZM29.0312 37.2832C29.8945 37.2832 30.5945 37.0615 31.1312 36.6182C31.6678 36.1515 31.9362 35.5332 31.9362 34.7632C31.9362 33.9932 31.6678 33.3749 31.1312 32.9082C30.5945 32.4415 29.8945 32.2082 29.0312 32.2082C28.1445 32.2082 27.4328 32.4415 26.8962 32.9082C26.3828 33.3515 26.1262 33.9699 26.1262 34.7632C26.1262 35.5332 26.3828 36.1515 26.8962 36.6182C27.4328 37.0615 28.1445 37.2832 29.0312 37.2832Z" fill="url(#paint0_linear_0_1)"/>
</g>
<defs>
<filter id="filter0_i_0_1" x="19.8611" y="17.543" width="19.5477" height="26.7232" filterUnits="userSpaceOnUse" color-interpolation-filters="sRGB">
<feFlood flood-opacity="0" result="BackgroundImageFix"/>
<feBlend mode="normal" in="SourceGraphic" in2="BackgroundImageFix" result="shape"/>
<feColorMatrix in="SourceAlpha" type="matrix" values="0 0 0 0 0 0 0 0 0 0 0 0 0 0 0 0 0 0 127 0" result="hardAlpha"/>
<feOffset dx="1.24269" dy="1.24269"/>
<feGaussianBlur stdDeviation="0.621346"/>
<feComposite in2="hardAlpha" operator="arithmetic" k2="-1" k3="1"/>
<feColorMatrix type="matrix" values="0 0 0 0 1 0 0 0 0 1 0 0 0 0 1 0 0 0 0.22 0"/>
<feBlend mode="normal" in2="shape" result="effect1_innerShadow_0_1"/>
</filter>
<linearGradient id="paint0_linear_0_1" x1="29.0195" y1="17.5332" x2="29.2279" y2="44.4789" gradientUnits="userSpaceOnUse">
<stop stop-color="#C24843"/>
<stop offset="0.24662" stop-color="#AE304A"/>
<stop offset="0.531796" stop-color="#752E72"/>
<stop offset="1" stop-color="#1A538B"/>
</linearGradient>
</defs>
</svg>
