<svg width="320" height="390" viewBox="0 0 320 390" fill="none" xmlns="http://www.w3.org/2000/svg">
<path d="M149.039 320.207L171.265 333.039V358.704L149.039 371.536L126.813 358.704V333.039L149.039 320.207Z" fill="url(#paint0_linear_43_6978)"/>
<path d="M149.039 243.361L171.265 256.193V281.857L149.039 294.689L126.813 281.857V256.193L149.039 243.361Z" fill="url(#paint1_linear_43_6978)"/>
<path d="M149.039 90.0252L171.265 102.857V128.521L149.039 141.353L126.813 128.521V102.857L149.039 90.0252Z" fill="url(#paint2_linear_43_6978)"/>
<path d="M149.039 166.808L171.265 179.64V205.304L149.039 218.136L126.813 205.304V179.64L149.039 166.808Z" fill="url(#paint3_linear_43_6978)"/>
<path d="M149.039 13.4729L171.265 26.305V51.9691L149.039 64.8011L126.813 51.9691V26.305L149.039 13.4729Z" fill="url(#paint4_linear_43_6978)"/>
<path d="M104.602 320.097L126.827 332.929V358.593L104.602 371.426L82.3759 358.593V332.929L104.602 320.097Z" fill="url(#paint5_linear_43_6978)"/>
<path d="M104.602 243.25L126.827 256.082V281.747L104.602 294.579L82.3759 281.747V256.082L104.602 243.25Z" fill="url(#paint6_linear_43_6978)"/>
<path d="M104.602 89.9156L126.827 102.748V128.412L104.602 141.244L82.3759 128.412V102.748L104.602 89.9156Z" fill="url(#paint7_linear_43_6978)"/>
<path d="M104.602 166.698L126.827 179.531V205.195L104.602 218.027L82.3759 205.195V179.531L104.602 166.698Z" fill="url(#paint8_linear_43_6978)"/>
<path d="M104.602 13.3632L126.827 26.1952V51.8593L104.602 64.6914L82.3759 51.8593V26.1952L104.602 13.3632Z" fill="url(#paint9_linear_43_6978)"/>
<path d="M193.346 320.097L215.572 332.929V358.593L193.346 371.425L171.12 358.593V332.929L193.346 320.097Z" fill="url(#paint10_linear_43_6978)"/>
<path d="M237.795 320.097L260.021 332.929V358.593L237.795 371.425L215.569 358.593V332.929L237.795 320.097Z" fill="url(#paint11_linear_43_6978)"/>
<path d="M326.649 320.097L348.874 332.929V358.593L326.649 371.426L304.423 358.593V332.929L326.649 320.097Z" fill="url(#paint12_linear_43_6978)"/>
<path d="M16.4629 320.097L38.6887 332.929V358.593L16.4629 371.425L-5.76283 358.593L-5.76283 332.929L16.4629 320.097Z" fill="url(#paint13_linear_43_6978)"/>
<path d="M282.195 320.097L304.421 332.929V358.593L282.195 371.425L259.97 358.593V332.929L282.195 320.097Z" fill="url(#paint14_linear_43_6978)"/>
<path d="M60.8614 320.097L83.0872 332.929V358.593L60.8614 371.425L38.6356 358.593V332.929L60.8614 320.097Z" fill="url(#paint15_linear_43_6978)"/>
<path d="M193.346 243.25L215.572 256.083V281.747L193.346 294.579L171.12 281.747V256.083L193.346 243.25Z" fill="url(#paint16_linear_43_6978)"/>
<path d="M193.346 89.9155L215.572 102.748V128.412L193.346 141.244L171.12 128.412V102.748L193.346 89.9155Z" fill="url(#paint17_linear_43_6978)"/>
<path d="M193.346 166.699L215.572 179.531V205.195L193.346 218.027L171.12 205.195V179.531L193.346 166.699Z" fill="url(#paint18_linear_43_6978)"/>
<path d="M193.346 13.3633L215.572 26.1953V51.8595L193.346 64.6915L171.12 51.8595V26.1953L193.346 13.3633Z" fill="url(#paint19_linear_43_6978)"/>
<path d="M237.795 243.25L260.021 256.083V281.747L237.795 294.579L215.569 281.747V256.083L237.795 243.25Z" fill="url(#paint20_linear_43_6978)"/>
<path d="M237.795 89.9155L260.021 102.748V128.412L237.795 141.244L215.569 128.412V102.748L237.795 89.9155Z" fill="url(#paint21_linear_43_6978)"/>
<path d="M237.795 166.699L260.021 179.531V205.195L237.795 218.027L215.569 205.195V179.531L237.795 166.699Z" fill="url(#paint22_linear_43_6978)"/>
<path d="M237.795 13.3633L260.021 26.1953V51.8595L237.795 64.6915L215.569 51.8595V26.1953L237.795 13.3633Z" fill="url(#paint23_linear_43_6978)"/>
<path d="M326.649 243.25L348.874 256.082V281.747L326.649 294.579L304.423 281.747V256.082L326.649 243.25Z" fill="url(#paint24_linear_43_6978)"/>
<path d="M16.4629 243.25L38.6887 256.083V281.747L16.4629 294.579L-5.76283 281.747L-5.76283 256.083L16.4629 243.25Z" fill="url(#paint25_linear_43_6978)"/>
<path d="M326.649 89.9156L348.874 102.748V128.412L326.649 141.244L304.423 128.412V102.748L326.649 89.9156Z" fill="url(#paint26_linear_43_6978)"/>
<path d="M16.4629 89.9155L38.6887 102.748V128.412L16.4629 141.244L-5.76283 128.412L-5.76283 102.748L16.4629 89.9155Z" fill="url(#paint27_linear_43_6978)"/>
<path d="M326.649 166.698L348.874 179.531V205.195L326.649 218.027L304.423 205.195V179.531L326.649 166.698Z" fill="url(#paint28_linear_43_6978)"/>
<path d="M16.4629 166.699L38.6887 179.531V205.195L16.4629 218.027L-5.76283 205.195L-5.76283 179.531L16.4629 166.699Z" fill="url(#paint29_linear_43_6978)"/>
<path d="M326.649 13.3632L348.874 26.1952V51.8593L326.649 64.6914L304.423 51.8593V26.1952L326.649 13.3632Z" fill="url(#paint30_linear_43_6978)"/>
<path d="M16.4629 13.3633L38.6887 26.1953V51.8595L16.4629 64.6915L-5.76283 51.8595L-5.76283 26.1953L16.4629 13.3633Z" fill="url(#paint31_linear_43_6978)"/>
<path d="M282.195 243.25L304.421 256.083V281.747L282.195 294.579L259.97 281.747V256.083L282.195 243.25Z" fill="url(#paint32_linear_43_6978)"/>
<path d="M282.195 89.9155L304.421 102.748V128.412L282.195 141.244L259.97 128.412V102.748L282.195 89.9155Z" fill="url(#paint33_linear_43_6978)"/>
<path d="M282.195 166.699L304.421 179.531V205.195L282.195 218.027L259.97 205.195V179.531L282.195 166.699Z" fill="url(#paint34_linear_43_6978)"/>
<path d="M282.195 13.3633L304.421 26.1953V51.8595L282.195 64.6915L259.97 51.8595V26.1953L282.195 13.3633Z" fill="url(#paint35_linear_43_6978)"/>
<path d="M60.8614 243.25L83.0872 256.083V281.747L60.8614 294.579L38.6356 281.747V256.083L60.8614 243.25Z" fill="url(#paint36_linear_43_6978)"/>
<path d="M60.8614 89.9155L83.0872 102.748V128.412L60.8614 141.244L38.6356 128.412V102.748L60.8614 89.9155Z" fill="url(#paint37_linear_43_6978)"/>
<path d="M60.8614 166.699L83.0872 179.531V205.195L60.8614 218.027L38.6356 205.195V179.531L60.8614 166.699Z" fill="url(#paint38_linear_43_6978)"/>
<path d="M60.8614 13.3633L83.0872 26.1953V51.8595L60.8614 64.6915L38.6356 51.8595V26.1953L60.8614 13.3633Z" fill="url(#paint39_linear_43_6978)"/>
<path d="M82.506 281.825L104.732 294.657V320.321L82.506 333.153L60.2802 320.321V294.657L82.506 281.825Z" fill="url(#paint40_linear_43_6978)"/>
<path d="M82.506 204.888L104.732 217.72V243.384L82.506 256.216L60.2802 243.384V217.72L82.506 204.888Z" fill="url(#paint41_linear_43_6978)"/>
<path d="M82.506 128.444L104.732 141.277V166.941L82.506 179.773L60.2802 166.941V141.277L82.506 128.444Z" fill="url(#paint42_linear_43_6978)"/>
<path d="M82.506 51.5524L104.732 64.3844V90.0485L82.506 102.881L60.2802 90.0485V64.3844L82.506 51.5524Z" fill="url(#paint43_linear_43_6978)"/>
<path d="M82.506 -24.8904L104.732 -12.0583V13.6058L82.506 26.4379L60.2802 13.6058V-12.0583L82.506 -24.8904Z" fill="url(#paint44_linear_43_6978)"/>
<path d="M82.506 358.672L104.732 371.504V397.168L82.506 410L60.2802 397.168V371.504L82.506 358.672Z" fill="url(#paint45_linear_43_6978)"/>
<path d="M171.256 358.672L193.482 371.504V397.168L171.256 410L149.03 397.168V371.504L171.256 358.672Z" fill="url(#paint46_linear_43_6978)"/>
<path d="M171.256 281.825L193.482 294.657V320.321L171.256 333.153L149.03 320.321V294.657L171.256 281.825Z" fill="url(#paint47_linear_43_6978)"/>
<path d="M171.256 204.998L193.482 217.83V243.494L171.256 256.326L149.03 243.494V217.83L171.256 204.998Z" fill="url(#paint48_linear_43_6978)"/>
<path d="M171.256 51.6621L193.482 64.4942V90.1583L171.256 102.99L149.03 90.1583V64.4942L171.256 51.6621Z" fill="url(#paint49_linear_43_6978)"/>
<path d="M171.256 128.444L193.482 141.276V166.941L171.256 179.773L149.03 166.941V141.276L171.256 128.444Z" fill="url(#paint50_linear_43_6978)"/>
<path d="M171.256 -24.8901L193.482 -12.0581V13.606L171.256 26.4381L149.03 13.606V-12.0581L171.256 -24.8901Z" fill="url(#paint51_linear_43_6978)"/>
<path d="M126.815 358.562L149.04 371.395V397.059L126.815 409.891L104.589 397.059V371.395L126.815 358.562Z" fill="url(#paint52_linear_43_6978)"/>
<path d="M126.815 281.715L149.04 294.547V320.212L126.815 333.044L104.589 320.212V294.547L126.815 281.715Z" fill="url(#paint53_linear_43_6978)"/>
<path d="M126.815 204.888L149.04 217.72V243.384L126.815 256.216L104.589 243.384V217.72L126.815 204.888Z" fill="url(#paint54_linear_43_6978)"/>
<path d="M126.815 51.5522L149.04 64.3843V90.0484L126.815 102.88L104.589 90.0484V64.3843L126.815 51.5522Z" fill="url(#paint55_linear_43_6978)"/>
<path d="M126.815 128.335L149.04 141.168V166.832L126.815 179.664L104.589 166.832V141.168L126.815 128.335Z" fill="url(#paint56_linear_43_6978)"/>
<path d="M126.815 -25L149.04 -12.1679V13.4962L126.815 26.3282L104.589 13.4962V-12.1679L126.815 -25Z" fill="url(#paint57_linear_43_6978)"/>
<path d="M215.563 358.562L237.788 371.395V397.059L215.563 409.891L193.337 397.059V371.395L215.563 358.562Z" fill="url(#paint58_linear_43_6978)"/>
<path d="M304.416 358.562L326.642 371.395V397.059L304.416 409.891L282.19 397.059V371.395L304.416 358.562Z" fill="url(#paint59_linear_43_6978)"/>
<path d="M-5.77338 358.562L16.4524 371.395V397.059L-5.77338 409.891L-27.9992 397.059L-27.9992 371.395L-5.77338 358.562Z" fill="url(#paint60_linear_43_6978)"/>
<path d="M260.002 358.562L282.228 371.395V397.059L260.002 409.891L237.776 397.059V371.395L260.002 358.562Z" fill="url(#paint61_linear_43_6978)"/>
<path d="M38.668 358.562L60.8938 371.395V397.059L38.668 409.891L16.4422 397.059L16.4422 371.395L38.668 358.562Z" fill="url(#paint62_linear_43_6978)"/>
<path d="M215.563 281.715L237.788 294.547V320.212L215.563 333.044L193.337 320.212V294.547L215.563 281.715Z" fill="url(#paint63_linear_43_6978)"/>
<path d="M215.563 204.888L237.788 217.72V243.384L215.563 256.216L193.337 243.384V217.72L215.563 204.888Z" fill="url(#paint64_linear_43_6978)"/>
<path d="M215.563 51.5522L237.788 64.3843V90.0484L215.563 102.88L193.337 90.0484V64.3843L215.563 51.5522Z" fill="url(#paint65_linear_43_6978)"/>
<path d="M215.563 128.335L237.788 141.168V166.832L215.563 179.664L193.337 166.832V141.168L215.563 128.335Z" fill="url(#paint66_linear_43_6978)"/>
<path d="M215.563 -25L237.788 -12.1679V13.4962L215.563 26.3282L193.337 13.4962V-12.1679L215.563 -25Z" fill="url(#paint67_linear_43_6978)"/>
<path d="M304.416 204.888L326.642 217.72V243.384L304.416 256.216L282.19 243.384V217.72L304.416 204.888Z" fill="url(#paint68_linear_43_6978)"/>
<path d="M-5.77338 204.888L16.4524 217.72V243.384L-5.77338 256.216L-27.9992 243.384L-27.9992 217.72L-5.77338 204.888Z" fill="url(#paint69_linear_43_6978)"/>
<path d="M304.416 51.5522L326.642 64.3843V90.0484L304.416 102.88L282.19 90.0484V64.3843L304.416 51.5522Z" fill="url(#paint70_linear_43_6978)"/>
<path d="M-5.77338 51.5522L16.4524 64.3843V90.0484L-5.77338 102.88L-27.9992 90.0484L-27.9992 64.3843L-5.77338 51.5522Z" fill="url(#paint71_linear_43_6978)"/>
<path d="M304.416 128.335L326.642 141.168V166.832L304.416 179.664L282.19 166.832V141.168L304.416 128.335Z" fill="url(#paint72_linear_43_6978)"/>
<path d="M-5.77338 128.335L16.4524 141.168V166.832L-5.77338 179.664L-27.9992 166.832L-27.9992 141.168L-5.77338 128.335Z" fill="url(#paint73_linear_43_6978)"/>
<path d="M304.416 -25L326.642 -12.1679V13.4962L304.416 26.3282L282.19 13.4962V-12.1679L304.416 -25Z" fill="url(#paint74_linear_43_6978)"/>
<path d="M-5.77338 -25L16.4524 -12.1679V13.4962L-5.77338 26.3282L-27.9992 13.4962L-27.9992 -12.1679L-5.77338 -25Z" fill="url(#paint75_linear_43_6978)"/>
<path d="M260.002 281.715L282.228 294.547V320.212L260.002 333.044L237.776 320.212V294.547L260.002 281.715Z" fill="url(#paint76_linear_43_6978)"/>
<path d="M38.668 281.715L60.8938 294.547V320.212L38.668 333.044L16.4422 320.212L16.4422 294.547L38.668 281.715Z" fill="url(#paint77_linear_43_6978)"/>
<path d="M304.41 281.715L326.636 294.547V320.212L304.41 333.044L282.184 320.212V294.547L304.41 281.715Z" fill="url(#paint78_linear_43_6978)"/>
<path d="M-5.78119 281.715L16.4446 294.547V320.212L-5.78119 333.044L-28.007 320.212L-28.007 294.547L-5.78119 281.715Z" fill="url(#paint79_linear_43_6978)"/>
<path d="M260.002 204.888L282.228 217.72V243.384L260.002 256.216L237.776 243.384V217.72L260.002 204.888Z" fill="url(#paint80_linear_43_6978)"/>
<path d="M260.002 51.5522L282.228 64.3843V90.0484L260.002 102.88L237.776 90.0484V64.3843L260.002 51.5522Z" fill="url(#paint81_linear_43_6978)"/>
<path d="M260.002 128.335L282.228 141.168V166.832L260.002 179.664L237.776 166.832V141.168L260.002 128.335Z" fill="url(#paint82_linear_43_6978)"/>
<path d="M260.002 -25L282.228 -12.1679V13.4962L260.002 26.3282L237.776 13.4962V-12.1679L260.002 -25Z" fill="url(#paint83_linear_43_6978)"/>
<path d="M38.668 204.888L60.8938 217.72V243.384L38.668 256.216L16.4422 243.384L16.4422 217.72L38.668 204.888Z" fill="url(#paint84_linear_43_6978)"/>
<path d="M38.668 51.5522L60.8938 64.3843V90.0484L38.668 102.88L16.4422 90.0484L16.4422 64.3843L38.668 51.5522Z" fill="url(#paint85_linear_43_6978)"/>
<path d="M38.668 128.335L60.8938 141.168V166.832L38.668 179.664L16.4422 166.832L16.4422 141.168L38.668 128.335Z" fill="url(#paint86_linear_43_6978)"/>
<path d="M38.668 -25L60.8938 -12.1679V13.4962L38.668 26.3282L16.4422 13.4962L16.4422 -12.1679L38.668 -25Z" fill="url(#paint87_linear_43_6978)"/>
<defs>
<linearGradient id="paint0_linear_43_6978" x1="161.201" y1="326.842" x2="136.785" y2="363.47" gradientUnits="userSpaceOnUse">
<stop stop-color="#EAEAEA"/>
<stop offset="1" stop-color="#F3F3F3"/>
</linearGradient>
<linearGradient id="paint1_linear_43_6978" x1="161.201" y1="249.995" x2="136.785" y2="286.624" gradientUnits="userSpaceOnUse">
<stop stop-color="#EAEAEA"/>
<stop offset="1" stop-color="#F3F3F3"/>
</linearGradient>
<linearGradient id="paint2_linear_43_6978" x1="161.201" y1="96.6597" x2="136.785" y2="133.288" gradientUnits="userSpaceOnUse">
<stop stop-color="#EAEAEA"/>
<stop offset="1" stop-color="#F3F3F3"/>
</linearGradient>
<linearGradient id="paint3_linear_43_6978" x1="161.201" y1="173.442" x2="136.785" y2="210.071" gradientUnits="userSpaceOnUse">
<stop stop-color="#EAEAEA"/>
<stop offset="1" stop-color="#F3F3F3"/>
</linearGradient>
<linearGradient id="paint4_linear_43_6978" x1="161.201" y1="20.1074" x2="136.785" y2="56.7359" gradientUnits="userSpaceOnUse">
<stop stop-color="#EAEAEA"/>
<stop offset="1" stop-color="#F3F3F3"/>
</linearGradient>
<linearGradient id="paint5_linear_43_6978" x1="116.764" y1="326.732" x2="92.3477" y2="363.36" gradientUnits="userSpaceOnUse">
<stop stop-color="#EAEAEA"/>
<stop offset="1" stop-color="#F3F3F3"/>
</linearGradient>
<linearGradient id="paint6_linear_43_6978" x1="116.764" y1="249.885" x2="92.3477" y2="286.513" gradientUnits="userSpaceOnUse">
<stop stop-color="#EAEAEA"/>
<stop offset="1" stop-color="#F3F3F3"/>
</linearGradient>
<linearGradient id="paint7_linear_43_6978" x1="116.764" y1="96.5501" x2="92.3477" y2="133.179" gradientUnits="userSpaceOnUse">
<stop stop-color="#EAEAEA"/>
<stop offset="1" stop-color="#F3F3F3"/>
</linearGradient>
<linearGradient id="paint8_linear_43_6978" x1="116.764" y1="173.333" x2="92.3477" y2="209.962" gradientUnits="userSpaceOnUse">
<stop stop-color="#EAEAEA"/>
<stop offset="1" stop-color="#F3F3F3"/>
</linearGradient>
<linearGradient id="paint9_linear_43_6978" x1="116.764" y1="19.9976" x2="92.3477" y2="56.6262" gradientUnits="userSpaceOnUse">
<stop stop-color="#EAEAEA"/>
<stop offset="1" stop-color="#F3F3F3"/>
</linearGradient>
<linearGradient id="paint10_linear_43_6978" x1="205.508" y1="326.732" x2="181.092" y2="363.36" gradientUnits="userSpaceOnUse">
<stop stop-color="#EAEAEA"/>
<stop offset="1" stop-color="#F3F3F3"/>
</linearGradient>
<linearGradient id="paint11_linear_43_6978" x1="249.957" y1="326.732" x2="225.541" y2="363.36" gradientUnits="userSpaceOnUse">
<stop stop-color="#EAEAEA"/>
<stop offset="1" stop-color="#F3F3F3"/>
</linearGradient>
<linearGradient id="paint12_linear_43_6978" x1="338.811" y1="326.732" x2="314.395" y2="363.36" gradientUnits="userSpaceOnUse">
<stop stop-color="#EAEAEA"/>
<stop offset="1" stop-color="#F3F3F3"/>
</linearGradient>
<linearGradient id="paint13_linear_43_6978" x1="28.625" y1="326.732" x2="4.20895" y2="363.36" gradientUnits="userSpaceOnUse">
<stop stop-color="#EAEAEA"/>
<stop offset="1" stop-color="#F3F3F3"/>
</linearGradient>
<linearGradient id="paint14_linear_43_6978" x1="294.357" y1="326.732" x2="269.941" y2="363.36" gradientUnits="userSpaceOnUse">
<stop stop-color="#EAEAEA"/>
<stop offset="1" stop-color="#F3F3F3"/>
</linearGradient>
<linearGradient id="paint15_linear_43_6978" x1="73.0235" y1="326.732" x2="48.6074" y2="363.36" gradientUnits="userSpaceOnUse">
<stop stop-color="#EAEAEA"/>
<stop offset="1" stop-color="#F3F3F3"/>
</linearGradient>
<linearGradient id="paint16_linear_43_6978" x1="205.508" y1="249.885" x2="181.092" y2="286.514" gradientUnits="userSpaceOnUse">
<stop stop-color="#EAEAEA"/>
<stop offset="1" stop-color="#F3F3F3"/>
</linearGradient>
<linearGradient id="paint17_linear_43_6978" x1="205.508" y1="96.55" x2="181.092" y2="133.179" gradientUnits="userSpaceOnUse">
<stop stop-color="#EAEAEA"/>
<stop offset="1" stop-color="#F3F3F3"/>
</linearGradient>
<linearGradient id="paint18_linear_43_6978" x1="205.508" y1="173.333" x2="181.092" y2="209.962" gradientUnits="userSpaceOnUse">
<stop stop-color="#EAEAEA"/>
<stop offset="1" stop-color="#F3F3F3"/>
</linearGradient>
<linearGradient id="paint19_linear_43_6978" x1="205.508" y1="19.9977" x2="181.092" y2="56.6263" gradientUnits="userSpaceOnUse">
<stop stop-color="#EAEAEA"/>
<stop offset="1" stop-color="#F3F3F3"/>
</linearGradient>
<linearGradient id="paint20_linear_43_6978" x1="249.957" y1="249.885" x2="225.541" y2="286.514" gradientUnits="userSpaceOnUse">
<stop stop-color="#EAEAEA"/>
<stop offset="1" stop-color="#F3F3F3"/>
</linearGradient>
<linearGradient id="paint21_linear_43_6978" x1="249.957" y1="96.55" x2="225.541" y2="133.179" gradientUnits="userSpaceOnUse">
<stop stop-color="#EAEAEA"/>
<stop offset="1" stop-color="#F3F3F3"/>
</linearGradient>
<linearGradient id="paint22_linear_43_6978" x1="249.957" y1="173.333" x2="225.541" y2="209.962" gradientUnits="userSpaceOnUse">
<stop stop-color="#EAEAEA"/>
<stop offset="1" stop-color="#F3F3F3"/>
</linearGradient>
<linearGradient id="paint23_linear_43_6978" x1="249.957" y1="19.9977" x2="225.541" y2="56.6263" gradientUnits="userSpaceOnUse">
<stop stop-color="#EAEAEA"/>
<stop offset="1" stop-color="#F3F3F3"/>
</linearGradient>
<linearGradient id="paint24_linear_43_6978" x1="338.811" y1="249.885" x2="314.395" y2="286.513" gradientUnits="userSpaceOnUse">
<stop stop-color="#EAEAEA"/>
<stop offset="1" stop-color="#F3F3F3"/>
</linearGradient>
<linearGradient id="paint25_linear_43_6978" x1="28.625" y1="249.885" x2="4.20895" y2="286.514" gradientUnits="userSpaceOnUse">
<stop stop-color="#EAEAEA"/>
<stop offset="1" stop-color="#F3F3F3"/>
</linearGradient>
<linearGradient id="paint26_linear_43_6978" x1="338.811" y1="96.5501" x2="314.395" y2="133.179" gradientUnits="userSpaceOnUse">
<stop stop-color="#EAEAEA"/>
<stop offset="1" stop-color="#F3F3F3"/>
</linearGradient>
<linearGradient id="paint27_linear_43_6978" x1="28.625" y1="96.55" x2="4.20895" y2="133.179" gradientUnits="userSpaceOnUse">
<stop stop-color="#EAEAEA"/>
<stop offset="1" stop-color="#F3F3F3"/>
</linearGradient>
<linearGradient id="paint28_linear_43_6978" x1="338.811" y1="173.333" x2="314.395" y2="209.962" gradientUnits="userSpaceOnUse">
<stop stop-color="#EAEAEA"/>
<stop offset="1" stop-color="#F3F3F3"/>
</linearGradient>
<linearGradient id="paint29_linear_43_6978" x1="28.625" y1="173.333" x2="4.20895" y2="209.962" gradientUnits="userSpaceOnUse">
<stop stop-color="#EAEAEA"/>
<stop offset="1" stop-color="#F3F3F3"/>
</linearGradient>
<linearGradient id="paint30_linear_43_6978" x1="338.811" y1="19.9976" x2="314.395" y2="56.6262" gradientUnits="userSpaceOnUse">
<stop stop-color="#EAEAEA"/>
<stop offset="1" stop-color="#F3F3F3"/>
</linearGradient>
<linearGradient id="paint31_linear_43_6978" x1="28.625" y1="19.9977" x2="4.20895" y2="56.6263" gradientUnits="userSpaceOnUse">
<stop stop-color="#EAEAEA"/>
<stop offset="1" stop-color="#F3F3F3"/>
</linearGradient>
<linearGradient id="paint32_linear_43_6978" x1="294.357" y1="249.885" x2="269.941" y2="286.514" gradientUnits="userSpaceOnUse">
<stop stop-color="#EAEAEA"/>
<stop offset="1" stop-color="#F3F3F3"/>
</linearGradient>
<linearGradient id="paint33_linear_43_6978" x1="294.357" y1="96.55" x2="269.941" y2="133.179" gradientUnits="userSpaceOnUse">
<stop stop-color="#EAEAEA"/>
<stop offset="1" stop-color="#F3F3F3"/>
</linearGradient>
<linearGradient id="paint34_linear_43_6978" x1="294.357" y1="173.333" x2="269.941" y2="209.962" gradientUnits="userSpaceOnUse">
<stop stop-color="#EAEAEA"/>
<stop offset="1" stop-color="#F3F3F3"/>
</linearGradient>
<linearGradient id="paint35_linear_43_6978" x1="294.357" y1="19.9977" x2="269.941" y2="56.6263" gradientUnits="userSpaceOnUse">
<stop stop-color="#EAEAEA"/>
<stop offset="1" stop-color="#F3F3F3"/>
</linearGradient>
<linearGradient id="paint36_linear_43_6978" x1="73.0235" y1="249.885" x2="48.6074" y2="286.514" gradientUnits="userSpaceOnUse">
<stop stop-color="#EAEAEA"/>
<stop offset="1" stop-color="#F3F3F3"/>
</linearGradient>
<linearGradient id="paint37_linear_43_6978" x1="73.0235" y1="96.55" x2="48.6074" y2="133.179" gradientUnits="userSpaceOnUse">
<stop stop-color="#EAEAEA"/>
<stop offset="1" stop-color="#F3F3F3"/>
</linearGradient>
<linearGradient id="paint38_linear_43_6978" x1="73.0235" y1="173.333" x2="48.6074" y2="209.962" gradientUnits="userSpaceOnUse">
<stop stop-color="#EAEAEA"/>
<stop offset="1" stop-color="#F3F3F3"/>
</linearGradient>
<linearGradient id="paint39_linear_43_6978" x1="73.0235" y1="19.9977" x2="48.6074" y2="56.6263" gradientUnits="userSpaceOnUse">
<stop stop-color="#EAEAEA"/>
<stop offset="1" stop-color="#F3F3F3"/>
</linearGradient>
<linearGradient id="paint40_linear_43_6978" x1="94.668" y1="288.459" x2="70.252" y2="325.088" gradientUnits="userSpaceOnUse">
<stop stop-color="#EAEAEA"/>
<stop offset="1" stop-color="#F3F3F3"/>
</linearGradient>
<linearGradient id="paint41_linear_43_6978" x1="94.668" y1="211.522" x2="70.252" y2="248.151" gradientUnits="userSpaceOnUse">
<stop stop-color="#EAEAEA"/>
<stop offset="1" stop-color="#F3F3F3"/>
</linearGradient>
<linearGradient id="paint42_linear_43_6978" x1="94.668" y1="135.079" x2="70.252" y2="171.707" gradientUnits="userSpaceOnUse">
<stop stop-color="#EAEAEA"/>
<stop offset="1" stop-color="#F3F3F3"/>
</linearGradient>
<linearGradient id="paint43_linear_43_6978" x1="94.668" y1="58.1868" x2="70.252" y2="94.8154" gradientUnits="userSpaceOnUse">
<stop stop-color="#EAEAEA"/>
<stop offset="1" stop-color="#F3F3F3"/>
</linearGradient>
<linearGradient id="paint44_linear_43_6978" x1="94.668" y1="-18.2559" x2="70.252" y2="18.3727" gradientUnits="userSpaceOnUse">
<stop stop-color="#EAEAEA"/>
<stop offset="1" stop-color="#F3F3F3"/>
</linearGradient>
<linearGradient id="paint45_linear_43_6978" x1="94.668" y1="365.306" x2="70.252" y2="401.935" gradientUnits="userSpaceOnUse">
<stop stop-color="#EAEAEA"/>
<stop offset="1" stop-color="#F3F3F3"/>
</linearGradient>
<linearGradient id="paint46_linear_43_6978" x1="183.418" y1="365.306" x2="159.002" y2="401.935" gradientUnits="userSpaceOnUse">
<stop stop-color="#EAEAEA"/>
<stop offset="1" stop-color="#F3F3F3"/>
</linearGradient>
<linearGradient id="paint47_linear_43_6978" x1="183.418" y1="288.459" x2="159.002" y2="325.088" gradientUnits="userSpaceOnUse">
<stop stop-color="#EAEAEA"/>
<stop offset="1" stop-color="#F3F3F3"/>
</linearGradient>
<linearGradient id="paint48_linear_43_6978" x1="183.418" y1="211.633" x2="159.002" y2="248.261" gradientUnits="userSpaceOnUse">
<stop stop-color="#EAEAEA"/>
<stop offset="1" stop-color="#F3F3F3"/>
</linearGradient>
<linearGradient id="paint49_linear_43_6978" x1="183.418" y1="58.2966" x2="159.002" y2="94.9251" gradientUnits="userSpaceOnUse">
<stop stop-color="#EAEAEA"/>
<stop offset="1" stop-color="#F3F3F3"/>
</linearGradient>
<linearGradient id="paint50_linear_43_6978" x1="183.418" y1="135.079" x2="159.002" y2="171.707" gradientUnits="userSpaceOnUse">
<stop stop-color="#EAEAEA"/>
<stop offset="1" stop-color="#F3F3F3"/>
</linearGradient>
<linearGradient id="paint51_linear_43_6978" x1="183.418" y1="-18.2557" x2="159.002" y2="18.3729" gradientUnits="userSpaceOnUse">
<stop stop-color="#EAEAEA"/>
<stop offset="1" stop-color="#F3F3F3"/>
</linearGradient>
<linearGradient id="paint52_linear_43_6978" x1="138.977" y1="365.197" x2="114.561" y2="401.826" gradientUnits="userSpaceOnUse">
<stop stop-color="#EAEAEA"/>
<stop offset="1" stop-color="#F3F3F3"/>
</linearGradient>
<linearGradient id="paint53_linear_43_6978" x1="138.977" y1="288.35" x2="114.561" y2="324.978" gradientUnits="userSpaceOnUse">
<stop stop-color="#EAEAEA"/>
<stop offset="1" stop-color="#F3F3F3"/>
</linearGradient>
<linearGradient id="paint54_linear_43_6978" x1="138.977" y1="211.522" x2="114.561" y2="248.151" gradientUnits="userSpaceOnUse">
<stop stop-color="#EAEAEA"/>
<stop offset="1" stop-color="#F3F3F3"/>
</linearGradient>
<linearGradient id="paint55_linear_43_6978" x1="138.977" y1="58.1867" x2="114.561" y2="94.8153" gradientUnits="userSpaceOnUse">
<stop stop-color="#EAEAEA"/>
<stop offset="1" stop-color="#F3F3F3"/>
</linearGradient>
<linearGradient id="paint56_linear_43_6978" x1="138.977" y1="134.97" x2="114.561" y2="171.598" gradientUnits="userSpaceOnUse">
<stop stop-color="#EAEAEA"/>
<stop offset="1" stop-color="#F3F3F3"/>
</linearGradient>
<linearGradient id="paint57_linear_43_6978" x1="138.977" y1="-18.3655" x2="114.561" y2="18.263" gradientUnits="userSpaceOnUse">
<stop stop-color="#EAEAEA"/>
<stop offset="1" stop-color="#F3F3F3"/>
</linearGradient>
<linearGradient id="paint58_linear_43_6978" x1="227.725" y1="365.197" x2="203.309" y2="401.826" gradientUnits="userSpaceOnUse">
<stop stop-color="#EAEAEA"/>
<stop offset="1" stop-color="#F3F3F3"/>
</linearGradient>
<linearGradient id="paint59_linear_43_6978" x1="316.578" y1="365.197" x2="292.162" y2="401.826" gradientUnits="userSpaceOnUse">
<stop stop-color="#EAEAEA"/>
<stop offset="1" stop-color="#F3F3F3"/>
</linearGradient>
<linearGradient id="paint60_linear_43_6978" x1="6.38869" y1="365.197" x2="-18.0274" y2="401.826" gradientUnits="userSpaceOnUse">
<stop stop-color="#EAEAEA"/>
<stop offset="1" stop-color="#F3F3F3"/>
</linearGradient>
<linearGradient id="paint61_linear_43_6978" x1="272.164" y1="365.197" x2="247.748" y2="401.826" gradientUnits="userSpaceOnUse">
<stop stop-color="#EAEAEA"/>
<stop offset="1" stop-color="#F3F3F3"/>
</linearGradient>
<linearGradient id="paint62_linear_43_6978" x1="50.8301" y1="365.197" x2="26.414" y2="401.826" gradientUnits="userSpaceOnUse">
<stop stop-color="#EAEAEA"/>
<stop offset="1" stop-color="#F3F3F3"/>
</linearGradient>
<linearGradient id="paint63_linear_43_6978" x1="227.725" y1="288.35" x2="203.309" y2="324.978" gradientUnits="userSpaceOnUse">
<stop stop-color="#EAEAEA"/>
<stop offset="1" stop-color="#F3F3F3"/>
</linearGradient>
<linearGradient id="paint64_linear_43_6978" x1="227.725" y1="211.522" x2="203.309" y2="248.151" gradientUnits="userSpaceOnUse">
<stop stop-color="#EAEAEA"/>
<stop offset="1" stop-color="#F3F3F3"/>
</linearGradient>
<linearGradient id="paint65_linear_43_6978" x1="227.725" y1="58.1867" x2="203.309" y2="94.8153" gradientUnits="userSpaceOnUse">
<stop stop-color="#EAEAEA"/>
<stop offset="1" stop-color="#F3F3F3"/>
</linearGradient>
<linearGradient id="paint66_linear_43_6978" x1="227.725" y1="134.97" x2="203.309" y2="171.598" gradientUnits="userSpaceOnUse">
<stop stop-color="#EAEAEA"/>
<stop offset="1" stop-color="#F3F3F3"/>
</linearGradient>
<linearGradient id="paint67_linear_43_6978" x1="227.725" y1="-18.3655" x2="203.309" y2="18.263" gradientUnits="userSpaceOnUse">
<stop stop-color="#EAEAEA"/>
<stop offset="1" stop-color="#F3F3F3"/>
</linearGradient>
<linearGradient id="paint68_linear_43_6978" x1="316.578" y1="211.522" x2="292.162" y2="248.151" gradientUnits="userSpaceOnUse">
<stop stop-color="#EAEAEA"/>
<stop offset="1" stop-color="#F3F3F3"/>
</linearGradient>
<linearGradient id="paint69_linear_43_6978" x1="6.38869" y1="211.522" x2="-18.0274" y2="248.151" gradientUnits="userSpaceOnUse">
<stop stop-color="#EAEAEA"/>
<stop offset="1" stop-color="#F3F3F3"/>
</linearGradient>
<linearGradient id="paint70_linear_43_6978" x1="316.578" y1="58.1867" x2="292.162" y2="94.8153" gradientUnits="userSpaceOnUse">
<stop stop-color="#EAEAEA"/>
<stop offset="1" stop-color="#F3F3F3"/>
</linearGradient>
<linearGradient id="paint71_linear_43_6978" x1="6.38869" y1="58.1867" x2="-18.0274" y2="94.8153" gradientUnits="userSpaceOnUse">
<stop stop-color="#EAEAEA"/>
<stop offset="1" stop-color="#F3F3F3"/>
</linearGradient>
<linearGradient id="paint72_linear_43_6978" x1="316.578" y1="134.97" x2="292.162" y2="171.598" gradientUnits="userSpaceOnUse">
<stop stop-color="#EAEAEA"/>
<stop offset="1" stop-color="#F3F3F3"/>
</linearGradient>
<linearGradient id="paint73_linear_43_6978" x1="6.38869" y1="134.97" x2="-18.0274" y2="171.598" gradientUnits="userSpaceOnUse">
<stop stop-color="#EAEAEA"/>
<stop offset="1" stop-color="#F3F3F3"/>
</linearGradient>
<linearGradient id="paint74_linear_43_6978" x1="316.578" y1="-18.3655" x2="292.162" y2="18.263" gradientUnits="userSpaceOnUse">
<stop stop-color="#EAEAEA"/>
<stop offset="1" stop-color="#F3F3F3"/>
</linearGradient>
<linearGradient id="paint75_linear_43_6978" x1="6.38869" y1="-18.3655" x2="-18.0274" y2="18.263" gradientUnits="userSpaceOnUse">
<stop stop-color="#EAEAEA"/>
<stop offset="1" stop-color="#F3F3F3"/>
</linearGradient>
<linearGradient id="paint76_linear_43_6978" x1="272.164" y1="288.35" x2="247.748" y2="324.978" gradientUnits="userSpaceOnUse">
<stop stop-color="#EAEAEA"/>
<stop offset="1" stop-color="#F3F3F3"/>
</linearGradient>
<linearGradient id="paint77_linear_43_6978" x1="50.8301" y1="288.35" x2="26.414" y2="324.978" gradientUnits="userSpaceOnUse">
<stop stop-color="#EAEAEA"/>
<stop offset="1" stop-color="#F3F3F3"/>
</linearGradient>
<linearGradient id="paint78_linear_43_6978" x1="316.572" y1="288.35" x2="292.156" y2="324.978" gradientUnits="userSpaceOnUse">
<stop stop-color="#EAEAEA"/>
<stop offset="1" stop-color="#F3F3F3"/>
</linearGradient>
<linearGradient id="paint79_linear_43_6978" x1="6.38088" y1="288.35" x2="-18.0352" y2="324.978" gradientUnits="userSpaceOnUse">
<stop stop-color="#EAEAEA"/>
<stop offset="1" stop-color="#F3F3F3"/>
</linearGradient>
<linearGradient id="paint80_linear_43_6978" x1="272.164" y1="211.522" x2="247.748" y2="248.151" gradientUnits="userSpaceOnUse">
<stop stop-color="#EAEAEA"/>
<stop offset="1" stop-color="#F3F3F3"/>
</linearGradient>
<linearGradient id="paint81_linear_43_6978" x1="272.164" y1="58.1867" x2="247.748" y2="94.8153" gradientUnits="userSpaceOnUse">
<stop stop-color="#EAEAEA"/>
<stop offset="1" stop-color="#F3F3F3"/>
</linearGradient>
<linearGradient id="paint82_linear_43_6978" x1="272.164" y1="134.97" x2="247.748" y2="171.598" gradientUnits="userSpaceOnUse">
<stop stop-color="#EAEAEA"/>
<stop offset="1" stop-color="#F3F3F3"/>
</linearGradient>
<linearGradient id="paint83_linear_43_6978" x1="272.164" y1="-18.3655" x2="247.748" y2="18.263" gradientUnits="userSpaceOnUse">
<stop stop-color="#EAEAEA"/>
<stop offset="1" stop-color="#F3F3F3"/>
</linearGradient>
<linearGradient id="paint84_linear_43_6978" x1="50.8301" y1="211.522" x2="26.414" y2="248.151" gradientUnits="userSpaceOnUse">
<stop stop-color="#EAEAEA"/>
<stop offset="1" stop-color="#F3F3F3"/>
</linearGradient>
<linearGradient id="paint85_linear_43_6978" x1="50.8301" y1="58.1867" x2="26.414" y2="94.8153" gradientUnits="userSpaceOnUse">
<stop stop-color="#EAEAEA"/>
<stop offset="1" stop-color="#F3F3F3"/>
</linearGradient>
<linearGradient id="paint86_linear_43_6978" x1="50.8301" y1="134.97" x2="26.414" y2="171.598" gradientUnits="userSpaceOnUse">
<stop stop-color="#EAEAEA"/>
<stop offset="1" stop-color="#F3F3F3"/>
</linearGradient>
<linearGradient id="paint87_linear_43_6978" x1="50.8301" y1="-18.3655" x2="26.414" y2="18.263" gradientUnits="userSpaceOnUse">
<stop stop-color="#EAEAEA"/>
<stop offset="1" stop-color="#F3F3F3"/>
</linearGradient>
</defs>
</svg>
