<svg width="319" height="499" viewBox="0 0 319 499" fill="none" xmlns="http://www.w3.org/2000/svg">
<path d="M0 22C0 13.7157 6.71573 7 15 7H304C312.284 7 319 13.7157 319 22V445.582C319 452.383 314.425 458.333 307.852 460.079L163.352 498.476C160.828 499.147 158.172 499.147 155.648 498.476L11.1478 460.079C4.57523 458.333 0 452.383 0 445.582V22Z" fill="#F0966E"/>
<path d="M0 15C0 6.71573 6.71573 0 15 0H304C312.284 0 319 6.71573 319 15V429.033C319 435.832 314.427 441.781 307.857 443.529L163.357 481.974C160.83 482.646 158.17 482.646 155.643 481.974L11.1433 443.529C4.57295 441.781 0 435.832 0 429.033L0 15Z" fill="white"/>
</svg>
