<svg width="1110" height="415" viewBox="0 0 1110 415" fill="none" xmlns="http://www.w3.org/2000/svg">
<path d="M554.719 113.408L603.491 141.567V197.883L554.719 226.041L505.947 197.883V141.567L554.719 113.408Z" fill="url(#paint0_linear_25_3427)"/>
<path d="M554.719 281.897L603.491 310.056V366.372L554.719 394.531L505.947 366.372V310.056L554.719 281.897Z" fill="url(#paint1_linear_25_3427)"/>
<path d="M554.719 -54.5771L603.491 -26.4188V29.8978L554.719 58.0561L505.947 29.8978V-26.4188L554.719 -54.5771Z" fill="url(#paint2_linear_25_3427)"/>
<path d="M457.203 113.168L505.975 141.326V197.643L457.203 225.801L408.432 197.643V141.326L457.203 113.168Z" fill="url(#paint3_linear_25_3427)"/>
<path d="M457.203 281.657L505.975 309.816V366.132L457.203 394.29L408.432 366.132V309.816L457.203 281.657Z" fill="url(#paint4_linear_25_3427)"/>
<path d="M457.203 -54.8174L505.975 -26.6591V29.6576L457.203 57.8159L408.432 29.6576V-26.6591L457.203 -54.8174Z" fill="url(#paint5_linear_25_3427)"/>
<path d="M651.942 113.167L700.713 141.325V197.642L651.942 225.8L603.17 197.642V141.325L651.942 113.167Z" fill="url(#paint6_linear_25_3427)"/>
<path d="M651.942 281.657L700.713 309.816V366.132L651.942 394.29L603.17 366.132V309.816L651.942 281.657Z" fill="url(#paint7_linear_25_3427)"/>
<path d="M651.941 -54.8176L700.713 -26.6593V29.6573L651.941 57.8156L603.17 29.6573V-26.6593L651.941 -54.8176Z" fill="url(#paint8_linear_25_3427)"/>
<path d="M749.481 113.167L798.252 141.325V197.642L749.481 225.8L700.709 197.642V141.325L749.481 113.167Z" fill="url(#paint9_linear_25_3427)"/>
<path d="M749.481 281.657L798.252 309.816V366.132L749.481 394.29L700.709 366.132V309.816L749.481 281.657Z" fill="url(#paint10_linear_25_3427)"/>
<path d="M749.481 -54.8176L798.252 -26.6593V29.6573L749.481 57.8156L700.709 29.6573V-26.6593L749.481 -54.8176Z" fill="url(#paint11_linear_25_3427)"/>
<path d="M70.0549 113.168L118.827 141.326V197.643L70.0549 225.801L21.2833 197.643L21.2833 141.326L70.0549 113.168Z" fill="url(#paint12_linear_25_3427)"/>
<path d="M944.459 113.167L993.231 141.325V197.642L944.459 225.8L895.688 197.642V141.325L944.459 113.167Z" fill="url(#paint13_linear_25_3427)"/>
<path d="M263.791 113.168L312.563 141.326V197.643L263.791 225.801L215.02 197.643V141.326L263.791 113.168Z" fill="url(#paint14_linear_25_3427)"/>
<path d="M1138.2 113.167L1186.97 141.325V197.642L1138.2 225.8L1089.42 197.642V141.325L1138.2 113.167Z" fill="url(#paint15_linear_25_3427)"/>
<path d="M70.0549 281.657L118.827 309.816V366.132L70.0549 394.29L21.2833 366.132L21.2833 309.816L70.0549 281.657Z" fill="url(#paint16_linear_25_3427)"/>
<path d="M944.459 281.657L993.231 309.816V366.132L944.459 394.29L895.688 366.132V309.816L944.459 281.657Z" fill="url(#paint17_linear_25_3427)"/>
<path d="M263.791 281.657L312.563 309.816V366.132L263.791 394.29L215.02 366.132V309.816L263.791 281.657Z" fill="url(#paint18_linear_25_3427)"/>
<path d="M1138.2 281.657L1186.97 309.816V366.132L1138.2 394.29L1089.42 366.132V309.816L1138.2 281.657Z" fill="url(#paint19_linear_25_3427)"/>
<path d="M70.0549 -54.8174L118.827 -26.6591V29.6576L70.0549 57.8159L21.2833 29.6576L21.2833 -26.6591L70.0549 -54.8174Z" fill="url(#paint20_linear_25_3427)"/>
<path d="M944.459 -54.8176L993.23 -26.6593V29.6573L944.459 57.8156L895.687 29.6573V-26.6593L944.459 -54.8176Z" fill="url(#paint21_linear_25_3427)"/>
<path d="M263.791 -54.8174L312.563 -26.6591V29.6576L263.791 57.8159L215.02 29.6576V-26.6591L263.791 -54.8174Z" fill="url(#paint22_linear_25_3427)"/>
<path d="M1138.2 -54.8176L1186.97 -26.6593V29.6573L1138.2 57.8156L1089.42 29.6573V-26.6593L1138.2 -54.8176Z" fill="url(#paint23_linear_25_3427)"/>
<path d="M-27.4881 113.167L21.2836 141.325V197.642L-27.4881 225.8L-76.2597 197.642V141.325L-27.4881 113.167Z" fill="url(#paint24_linear_25_3427)"/>
<path d="M846.914 113.168L895.686 141.326V197.643L846.914 225.801L798.143 197.643V141.326L846.914 113.168Z" fill="url(#paint25_linear_25_3427)"/>
<path d="M-27.4881 281.657L21.2836 309.816V366.132L-27.4881 394.29L-76.2597 366.132V309.816L-27.4881 281.657Z" fill="url(#paint26_linear_25_3427)"/>
<path d="M846.914 281.657L895.686 309.816V366.132L846.914 394.29L798.143 366.132V309.816L846.914 281.657Z" fill="url(#paint27_linear_25_3427)"/>
<path d="M-27.4881 -54.8176L21.2836 -26.6593V29.6573L-27.4881 57.8156L-76.2597 29.6573V-26.6593L-27.4881 -54.8176Z" fill="url(#paint28_linear_25_3427)"/>
<path d="M846.914 -54.8174L895.686 -26.6591V29.6576L846.914 57.8159L798.143 29.6576V-26.6591L846.914 -54.8174Z" fill="url(#paint29_linear_25_3427)"/>
<path d="M167.49 113.168L216.262 141.326V197.643L167.49 225.801L118.719 197.643V141.326L167.49 113.168Z" fill="url(#paint30_linear_25_3427)"/>
<path d="M1041.89 113.167L1090.67 141.325V197.642L1041.89 225.8L993.123 197.642V141.325L1041.89 113.167Z" fill="url(#paint31_linear_25_3427)"/>
<path d="M361.225 113.168L409.996 141.326V197.643L361.225 225.801L312.453 197.643V141.326L361.225 113.168Z" fill="url(#paint32_linear_25_3427)"/>
<path d="M167.49 281.657L216.262 309.816V366.132L167.49 394.29L118.719 366.132V309.816L167.49 281.657Z" fill="url(#paint33_linear_25_3427)"/>
<path d="M1041.89 281.657L1090.67 309.816V366.132L1041.89 394.29L993.123 366.132V309.816L1041.89 281.657Z" fill="url(#paint34_linear_25_3427)"/>
<path d="M361.225 281.657L409.996 309.816V366.132L361.225 394.29L312.453 366.132V309.816L361.225 281.657Z" fill="url(#paint35_linear_25_3427)"/>
<path d="M167.49 -54.8174L216.262 -26.6591V29.6576L167.49 57.8159L118.719 29.6576V-26.6591L167.49 -54.8174Z" fill="url(#paint36_linear_25_3427)"/>
<path d="M1041.89 -54.8176L1090.67 -26.6593V29.6573L1041.89 57.8156L993.123 29.6573V-26.6593L1041.89 -54.8176Z" fill="url(#paint37_linear_25_3427)"/>
<path d="M361.225 -54.8174L409.996 -26.6591V29.6576L361.225 57.8159L312.453 29.6576V-26.6591L361.225 -54.8174Z" fill="url(#paint38_linear_25_3427)"/>
<path d="M408.721 365.46L457.493 393.618V449.935L408.721 478.093L359.949 449.935V393.618L408.721 365.46Z" fill="url(#paint39_linear_25_3427)"/>
<path d="M408.721 197.715L457.493 225.873V282.19L408.721 310.348L359.949 282.19V225.873L408.721 197.715Z" fill="url(#paint40_linear_25_3427)"/>
<path d="M408.721 28.9854L457.493 57.1437V113.46L408.721 141.619L359.949 113.46V57.1437L408.721 28.9854Z" fill="url(#paint41_linear_25_3427)"/>
<path d="M603.471 365.7L652.243 393.859V450.175L603.471 478.333L554.699 450.175V393.859L603.471 365.7Z" fill="url(#paint42_linear_25_3427)"/>
<path d="M603.471 29.2256L652.243 57.3839V113.701L603.471 141.859L554.699 113.701V57.3839L603.471 29.2256Z" fill="url(#paint43_linear_25_3427)"/>
<path d="M603.47 197.715L652.242 225.873V282.19L603.47 310.348L554.699 282.19V225.873L603.47 197.715Z" fill="url(#paint44_linear_25_3427)"/>
<path d="M505.955 365.46L554.727 393.618V449.935L505.955 478.093L457.184 449.935V393.618L505.955 365.46Z" fill="url(#paint45_linear_25_3427)"/>
<path d="M505.955 28.9854L554.727 57.1437V113.46L505.955 141.619L457.184 113.46V57.1437L505.955 28.9854Z" fill="url(#paint46_linear_25_3427)"/>
<path d="M505.956 197.475L554.727 225.633V281.95L505.956 310.108L457.184 281.95V225.633L505.956 197.475Z" fill="url(#paint47_linear_25_3427)"/>
<path d="M700.694 365.46L749.465 393.618V449.935L700.694 478.093L651.922 449.935V393.618L700.694 365.46Z" fill="url(#paint48_linear_25_3427)"/>
<path d="M700.694 28.9854L749.465 57.1437V113.46L700.694 141.619L651.922 113.46V57.1437L700.694 28.9854Z" fill="url(#paint49_linear_25_3427)"/>
<path d="M700.694 197.475L749.465 225.633V281.95L700.694 310.108L651.922 281.95V225.633L700.694 197.475Z" fill="url(#paint50_linear_25_3427)"/>
<path d="M21.2698 365.46L70.0414 393.618V449.935L21.2698 478.093L-27.5019 449.935L-27.5019 393.618L21.2698 365.46Z" fill="url(#paint51_linear_25_3427)"/>
<path d="M895.672 365.46L944.444 393.618V449.935L895.672 478.093L846.9 449.935V393.618L895.672 365.46Z" fill="url(#paint52_linear_25_3427)"/>
<path d="M215.004 365.46L263.776 393.618V449.935L215.004 478.093L166.232 449.935V393.618L215.004 365.46Z" fill="url(#paint53_linear_25_3427)"/>
<path d="M1089.41 365.46L1138.18 393.618V449.935L1089.41 478.093L1040.64 449.935V393.618L1089.41 365.46Z" fill="url(#paint54_linear_25_3427)"/>
<path d="M21.2698 28.9854L70.0414 57.1437V113.46L21.2698 141.619L-27.5019 113.46L-27.5019 57.1437L21.2698 28.9854Z" fill="url(#paint55_linear_25_3427)"/>
<path d="M895.672 28.9854L944.444 57.1437V113.46L895.672 141.619L846.9 113.46V57.1437L895.672 28.9854Z" fill="url(#paint56_linear_25_3427)"/>
<path d="M215.004 28.9854L263.776 57.1437V113.46L215.004 141.619L166.232 113.46V57.1437L215.004 28.9854Z" fill="url(#paint57_linear_25_3427)"/>
<path d="M1089.41 28.9854L1138.18 57.1437V113.46L1089.41 141.619L1040.64 113.46V57.1437L1089.41 28.9854Z" fill="url(#paint58_linear_25_3427)"/>
<path d="M21.2698 197.475L70.0414 225.633V281.95L21.2698 310.108L-27.5019 281.95L-27.5019 225.633L21.2698 197.475Z" fill="url(#paint59_linear_25_3427)"/>
<path d="M895.672 197.475L944.444 225.633V281.95L895.672 310.108L846.901 281.95V225.633L895.672 197.475Z" fill="url(#paint60_linear_25_3427)"/>
<path d="M215.004 197.475L263.776 225.633V281.95L215.004 310.108L166.232 281.95V225.633L215.004 197.475Z" fill="url(#paint61_linear_25_3427)"/>
<path d="M1089.41 197.475L1138.18 225.633V281.95L1089.41 310.108L1040.64 281.95V225.633L1089.41 197.475Z" fill="url(#paint62_linear_25_3427)"/>
<path d="M798.211 365.46L846.983 393.618V449.935L798.211 478.093L749.44 449.935V393.618L798.211 365.46Z" fill="url(#paint63_linear_25_3427)"/>
<path d="M798.211 28.9854L846.983 57.1437V113.46L798.211 141.619L749.44 113.46V57.1437L798.211 28.9854Z" fill="url(#paint64_linear_25_3427)"/>
<path d="M798.211 197.475L846.983 225.633V281.95L798.211 310.108L749.44 281.95V225.633L798.211 197.475Z" fill="url(#paint65_linear_25_3427)"/>
<path d="M118.785 365.46L167.557 393.618V449.935L118.785 478.093L70.0137 449.935V393.618L118.785 365.46Z" fill="url(#paint66_linear_25_3427)"/>
<path d="M993.19 365.46L1041.96 393.618V449.935L993.19 478.093L944.418 449.935V393.618L993.19 365.46Z" fill="url(#paint67_linear_25_3427)"/>
<path d="M312.522 365.46L361.293 393.618V449.935L312.522 478.093L263.75 449.935V393.618L312.522 365.46Z" fill="url(#paint68_linear_25_3427)"/>
<path d="M118.785 28.9854L167.557 57.1437V113.46L118.785 141.619L70.0137 113.46V57.1437L118.785 28.9854Z" fill="url(#paint69_linear_25_3427)"/>
<path d="M993.19 28.9854L1041.96 57.1437V113.46L993.19 141.619L944.418 113.46V57.1437L993.19 28.9854Z" fill="url(#paint70_linear_25_3427)"/>
<path d="M312.522 28.9854L361.293 57.1437V113.46L312.522 141.619L263.75 113.46V57.1437L312.522 28.9854Z" fill="url(#paint71_linear_25_3427)"/>
<path d="M118.785 197.475L167.557 225.633V281.95L118.785 310.108L70.0137 281.95V225.633L118.785 197.475Z" fill="url(#paint72_linear_25_3427)"/>
<path d="M993.19 197.475L1041.96 225.633V281.95L993.19 310.108L944.418 281.95V225.633L993.19 197.475Z" fill="url(#paint73_linear_25_3427)"/>
<path d="M312.522 197.475L361.293 225.633V281.95L312.522 310.108L263.75 281.95V225.633L312.522 197.475Z" fill="url(#paint74_linear_25_3427)"/>
<defs>
<linearGradient id="paint0_linear_25_3427" x1="581.407" y1="127.967" x2="527.829" y2="208.343" gradientUnits="userSpaceOnUse">
<stop stop-color="#020202"/>
<stop offset="1" stop-color="#0D0D0D"/>
</linearGradient>
<linearGradient id="paint1_linear_25_3427" x1="581.407" y1="296.456" x2="527.829" y2="376.833" gradientUnits="userSpaceOnUse">
<stop stop-color="#020202"/>
<stop offset="1" stop-color="#0D0D0D"/>
</linearGradient>
<linearGradient id="paint2_linear_25_3427" x1="581.407" y1="-40.0187" x2="527.829" y2="40.3581" gradientUnits="userSpaceOnUse">
<stop stop-color="#020202"/>
<stop offset="1" stop-color="#0D0D0D"/>
</linearGradient>
<linearGradient id="paint3_linear_25_3427" x1="483.891" y1="127.726" x2="430.314" y2="208.103" gradientUnits="userSpaceOnUse">
<stop stop-color="#020202"/>
<stop offset="1" stop-color="#0D0D0D"/>
</linearGradient>
<linearGradient id="paint4_linear_25_3427" x1="483.891" y1="296.216" x2="430.314" y2="376.592" gradientUnits="userSpaceOnUse">
<stop stop-color="#020202"/>
<stop offset="1" stop-color="#0D0D0D"/>
</linearGradient>
<linearGradient id="paint5_linear_25_3427" x1="483.891" y1="-40.2589" x2="430.314" y2="40.1178" gradientUnits="userSpaceOnUse">
<stop stop-color="#020202"/>
<stop offset="1" stop-color="#0D0D0D"/>
</linearGradient>
<linearGradient id="paint6_linear_25_3427" x1="678.63" y1="127.725" x2="625.052" y2="208.102" gradientUnits="userSpaceOnUse">
<stop stop-color="#020202"/>
<stop offset="1" stop-color="#0D0D0D"/>
</linearGradient>
<linearGradient id="paint7_linear_25_3427" x1="678.63" y1="296.216" x2="625.052" y2="376.592" gradientUnits="userSpaceOnUse">
<stop stop-color="#020202"/>
<stop offset="1" stop-color="#0D0D0D"/>
</linearGradient>
<linearGradient id="paint8_linear_25_3427" x1="678.629" y1="-40.2591" x2="625.051" y2="40.1176" gradientUnits="userSpaceOnUse">
<stop stop-color="#020202"/>
<stop offset="1" stop-color="#0D0D0D"/>
</linearGradient>
<linearGradient id="paint9_linear_25_3427" x1="776.169" y1="127.725" x2="722.591" y2="208.102" gradientUnits="userSpaceOnUse">
<stop stop-color="#020202"/>
<stop offset="1" stop-color="#0D0D0D"/>
</linearGradient>
<linearGradient id="paint10_linear_25_3427" x1="776.169" y1="296.216" x2="722.591" y2="376.592" gradientUnits="userSpaceOnUse">
<stop stop-color="#020202"/>
<stop offset="1" stop-color="#0D0D0D"/>
</linearGradient>
<linearGradient id="paint11_linear_25_3427" x1="776.169" y1="-40.2591" x2="722.591" y2="40.1176" gradientUnits="userSpaceOnUse">
<stop stop-color="#020202"/>
<stop offset="1" stop-color="#0D0D0D"/>
</linearGradient>
<linearGradient id="paint12_linear_25_3427" x1="96.743" y1="127.726" x2="43.1651" y2="208.103" gradientUnits="userSpaceOnUse">
<stop stop-color="#020202"/>
<stop offset="1" stop-color="#0D0D0D"/>
</linearGradient>
<linearGradient id="paint13_linear_25_3427" x1="971.147" y1="127.725" x2="917.569" y2="208.102" gradientUnits="userSpaceOnUse">
<stop stop-color="#020202"/>
<stop offset="1" stop-color="#0D0D0D"/>
</linearGradient>
<linearGradient id="paint14_linear_25_3427" x1="290.479" y1="127.726" x2="236.901" y2="208.103" gradientUnits="userSpaceOnUse">
<stop stop-color="#020202"/>
<stop offset="1" stop-color="#0D0D0D"/>
</linearGradient>
<linearGradient id="paint15_linear_25_3427" x1="1164.88" y1="127.725" x2="1111.31" y2="208.102" gradientUnits="userSpaceOnUse">
<stop stop-color="#020202"/>
<stop offset="1" stop-color="#0D0D0D"/>
</linearGradient>
<linearGradient id="paint16_linear_25_3427" x1="96.743" y1="296.216" x2="43.1651" y2="376.592" gradientUnits="userSpaceOnUse">
<stop stop-color="#020202"/>
<stop offset="1" stop-color="#0D0D0D"/>
</linearGradient>
<linearGradient id="paint17_linear_25_3427" x1="971.147" y1="296.216" x2="917.569" y2="376.592" gradientUnits="userSpaceOnUse">
<stop stop-color="#020202"/>
<stop offset="1" stop-color="#0D0D0D"/>
</linearGradient>
<linearGradient id="paint18_linear_25_3427" x1="290.479" y1="296.216" x2="236.901" y2="376.592" gradientUnits="userSpaceOnUse">
<stop stop-color="#020202"/>
<stop offset="1" stop-color="#0D0D0D"/>
</linearGradient>
<linearGradient id="paint19_linear_25_3427" x1="1164.88" y1="296.216" x2="1111.31" y2="376.592" gradientUnits="userSpaceOnUse">
<stop stop-color="#020202"/>
<stop offset="1" stop-color="#0D0D0D"/>
</linearGradient>
<linearGradient id="paint20_linear_25_3427" x1="96.743" y1="-40.2589" x2="43.1651" y2="40.1178" gradientUnits="userSpaceOnUse">
<stop stop-color="#020202"/>
<stop offset="1" stop-color="#0D0D0D"/>
</linearGradient>
<linearGradient id="paint21_linear_25_3427" x1="971.147" y1="-40.2591" x2="917.569" y2="40.1176" gradientUnits="userSpaceOnUse">
<stop stop-color="#020202"/>
<stop offset="1" stop-color="#0D0D0D"/>
</linearGradient>
<linearGradient id="paint22_linear_25_3427" x1="290.479" y1="-40.2589" x2="236.901" y2="40.1178" gradientUnits="userSpaceOnUse">
<stop stop-color="#020202"/>
<stop offset="1" stop-color="#0D0D0D"/>
</linearGradient>
<linearGradient id="paint23_linear_25_3427" x1="1164.88" y1="-40.2591" x2="1111.31" y2="40.1176" gradientUnits="userSpaceOnUse">
<stop stop-color="#020202"/>
<stop offset="1" stop-color="#0D0D0D"/>
</linearGradient>
<linearGradient id="paint24_linear_25_3427" x1="-0.799938" y1="127.725" x2="-54.3779" y2="208.102" gradientUnits="userSpaceOnUse">
<stop stop-color="#020202"/>
<stop offset="1" stop-color="#0D0D0D"/>
</linearGradient>
<linearGradient id="paint25_linear_25_3427" x1="873.602" y1="127.726" x2="820.024" y2="208.103" gradientUnits="userSpaceOnUse">
<stop stop-color="#020202"/>
<stop offset="1" stop-color="#0D0D0D"/>
</linearGradient>
<linearGradient id="paint26_linear_25_3427" x1="-0.799938" y1="296.216" x2="-54.3779" y2="376.592" gradientUnits="userSpaceOnUse">
<stop stop-color="#020202"/>
<stop offset="1" stop-color="#0D0D0D"/>
</linearGradient>
<linearGradient id="paint27_linear_25_3427" x1="873.602" y1="296.216" x2="820.024" y2="376.592" gradientUnits="userSpaceOnUse">
<stop stop-color="#020202"/>
<stop offset="1" stop-color="#0D0D0D"/>
</linearGradient>
<linearGradient id="paint28_linear_25_3427" x1="-0.799938" y1="-40.2591" x2="-54.3779" y2="40.1176" gradientUnits="userSpaceOnUse">
<stop stop-color="#020202"/>
<stop offset="1" stop-color="#0D0D0D"/>
</linearGradient>
<linearGradient id="paint29_linear_25_3427" x1="873.602" y1="-40.2589" x2="820.024" y2="40.1178" gradientUnits="userSpaceOnUse">
<stop stop-color="#020202"/>
<stop offset="1" stop-color="#0D0D0D"/>
</linearGradient>
<linearGradient id="paint30_linear_25_3427" x1="194.179" y1="127.726" x2="140.601" y2="208.103" gradientUnits="userSpaceOnUse">
<stop stop-color="#020202"/>
<stop offset="1" stop-color="#0D0D0D"/>
</linearGradient>
<linearGradient id="paint31_linear_25_3427" x1="1068.58" y1="127.725" x2="1015" y2="208.102" gradientUnits="userSpaceOnUse">
<stop stop-color="#020202"/>
<stop offset="1" stop-color="#0D0D0D"/>
</linearGradient>
<linearGradient id="paint32_linear_25_3427" x1="387.913" y1="127.726" x2="334.335" y2="208.103" gradientUnits="userSpaceOnUse">
<stop stop-color="#020202"/>
<stop offset="1" stop-color="#0D0D0D"/>
</linearGradient>
<linearGradient id="paint33_linear_25_3427" x1="194.179" y1="296.216" x2="140.601" y2="376.592" gradientUnits="userSpaceOnUse">
<stop stop-color="#020202"/>
<stop offset="1" stop-color="#0D0D0D"/>
</linearGradient>
<linearGradient id="paint34_linear_25_3427" x1="1068.58" y1="296.216" x2="1015" y2="376.592" gradientUnits="userSpaceOnUse">
<stop stop-color="#020202"/>
<stop offset="1" stop-color="#0D0D0D"/>
</linearGradient>
<linearGradient id="paint35_linear_25_3427" x1="387.913" y1="296.216" x2="334.335" y2="376.592" gradientUnits="userSpaceOnUse">
<stop stop-color="#020202"/>
<stop offset="1" stop-color="#0D0D0D"/>
</linearGradient>
<linearGradient id="paint36_linear_25_3427" x1="194.179" y1="-40.2589" x2="140.601" y2="40.1178" gradientUnits="userSpaceOnUse">
<stop stop-color="#020202"/>
<stop offset="1" stop-color="#0D0D0D"/>
</linearGradient>
<linearGradient id="paint37_linear_25_3427" x1="1068.58" y1="-40.2591" x2="1015" y2="40.1176" gradientUnits="userSpaceOnUse">
<stop stop-color="#020202"/>
<stop offset="1" stop-color="#0D0D0D"/>
</linearGradient>
<linearGradient id="paint38_linear_25_3427" x1="387.913" y1="-40.2589" x2="334.335" y2="40.1178" gradientUnits="userSpaceOnUse">
<stop stop-color="#020202"/>
<stop offset="1" stop-color="#0D0D0D"/>
</linearGradient>
<linearGradient id="paint39_linear_25_3427" x1="435.409" y1="380.018" x2="381.831" y2="460.395" gradientUnits="userSpaceOnUse">
<stop stop-color="#020202"/>
<stop offset="1" stop-color="#0D0D0D"/>
</linearGradient>
<linearGradient id="paint40_linear_25_3427" x1="435.409" y1="212.273" x2="381.831" y2="292.65" gradientUnits="userSpaceOnUse">
<stop stop-color="#020202"/>
<stop offset="1" stop-color="#0D0D0D"/>
</linearGradient>
<linearGradient id="paint41_linear_25_3427" x1="435.409" y1="43.5438" x2="381.831" y2="123.921" gradientUnits="userSpaceOnUse">
<stop stop-color="#020202"/>
<stop offset="1" stop-color="#0D0D0D"/>
</linearGradient>
<linearGradient id="paint42_linear_25_3427" x1="630.159" y1="380.259" x2="576.581" y2="460.635" gradientUnits="userSpaceOnUse">
<stop stop-color="#020202"/>
<stop offset="1" stop-color="#0D0D0D"/>
</linearGradient>
<linearGradient id="paint43_linear_25_3427" x1="630.159" y1="43.7841" x2="576.581" y2="124.161" gradientUnits="userSpaceOnUse">
<stop stop-color="#020202"/>
<stop offset="1" stop-color="#0D0D0D"/>
</linearGradient>
<linearGradient id="paint44_linear_25_3427" x1="630.159" y1="212.273" x2="576.581" y2="292.65" gradientUnits="userSpaceOnUse">
<stop stop-color="#020202"/>
<stop offset="1" stop-color="#0D0D0D"/>
</linearGradient>
<linearGradient id="paint45_linear_25_3427" x1="532.643" y1="380.018" x2="479.065" y2="460.395" gradientUnits="userSpaceOnUse">
<stop stop-color="#020202"/>
<stop offset="1" stop-color="#0D0D0D"/>
</linearGradient>
<linearGradient id="paint46_linear_25_3427" x1="532.643" y1="43.5438" x2="479.065" y2="123.921" gradientUnits="userSpaceOnUse">
<stop stop-color="#020202"/>
<stop offset="1" stop-color="#0D0D0D"/>
</linearGradient>
<linearGradient id="paint47_linear_25_3427" x1="532.644" y1="212.033" x2="479.066" y2="292.41" gradientUnits="userSpaceOnUse">
<stop stop-color="#020202"/>
<stop offset="1" stop-color="#0D0D0D"/>
</linearGradient>
<linearGradient id="paint48_linear_25_3427" x1="727.382" y1="380.018" x2="673.804" y2="460.395" gradientUnits="userSpaceOnUse">
<stop stop-color="#020202"/>
<stop offset="1" stop-color="#0D0D0D"/>
</linearGradient>
<linearGradient id="paint49_linear_25_3427" x1="727.382" y1="43.5438" x2="673.804" y2="123.921" gradientUnits="userSpaceOnUse">
<stop stop-color="#020202"/>
<stop offset="1" stop-color="#0D0D0D"/>
</linearGradient>
<linearGradient id="paint50_linear_25_3427" x1="727.382" y1="212.033" x2="673.804" y2="292.41" gradientUnits="userSpaceOnUse">
<stop stop-color="#020202"/>
<stop offset="1" stop-color="#0D0D0D"/>
</linearGradient>
<linearGradient id="paint51_linear_25_3427" x1="47.9579" y1="380.018" x2="-5.62007" y2="460.395" gradientUnits="userSpaceOnUse">
<stop stop-color="#020202"/>
<stop offset="1" stop-color="#0D0D0D"/>
</linearGradient>
<linearGradient id="paint52_linear_25_3427" x1="922.36" y1="380.018" x2="868.782" y2="460.395" gradientUnits="userSpaceOnUse">
<stop stop-color="#020202"/>
<stop offset="1" stop-color="#0D0D0D"/>
</linearGradient>
<linearGradient id="paint53_linear_25_3427" x1="241.692" y1="380.018" x2="188.114" y2="460.395" gradientUnits="userSpaceOnUse">
<stop stop-color="#020202"/>
<stop offset="1" stop-color="#0D0D0D"/>
</linearGradient>
<linearGradient id="paint54_linear_25_3427" x1="1116.1" y1="380.018" x2="1062.52" y2="460.395" gradientUnits="userSpaceOnUse">
<stop stop-color="#020202"/>
<stop offset="1" stop-color="#0D0D0D"/>
</linearGradient>
<linearGradient id="paint55_linear_25_3427" x1="47.9579" y1="43.5438" x2="-5.62007" y2="123.921" gradientUnits="userSpaceOnUse">
<stop stop-color="#020202"/>
<stop offset="1" stop-color="#0D0D0D"/>
</linearGradient>
<linearGradient id="paint56_linear_25_3427" x1="922.36" y1="43.5438" x2="868.782" y2="123.921" gradientUnits="userSpaceOnUse">
<stop stop-color="#020202"/>
<stop offset="1" stop-color="#0D0D0D"/>
</linearGradient>
<linearGradient id="paint57_linear_25_3427" x1="241.692" y1="43.5438" x2="188.114" y2="123.921" gradientUnits="userSpaceOnUse">
<stop stop-color="#020202"/>
<stop offset="1" stop-color="#0D0D0D"/>
</linearGradient>
<linearGradient id="paint58_linear_25_3427" x1="1116.1" y1="43.5438" x2="1062.52" y2="123.921" gradientUnits="userSpaceOnUse">
<stop stop-color="#020202"/>
<stop offset="1" stop-color="#0D0D0D"/>
</linearGradient>
<linearGradient id="paint59_linear_25_3427" x1="47.9579" y1="212.033" x2="-5.62007" y2="292.41" gradientUnits="userSpaceOnUse">
<stop stop-color="#020202"/>
<stop offset="1" stop-color="#0D0D0D"/>
</linearGradient>
<linearGradient id="paint60_linear_25_3427" x1="922.36" y1="212.033" x2="868.783" y2="292.41" gradientUnits="userSpaceOnUse">
<stop stop-color="#020202"/>
<stop offset="1" stop-color="#0D0D0D"/>
</linearGradient>
<linearGradient id="paint61_linear_25_3427" x1="241.692" y1="212.033" x2="188.114" y2="292.41" gradientUnits="userSpaceOnUse">
<stop stop-color="#020202"/>
<stop offset="1" stop-color="#0D0D0D"/>
</linearGradient>
<linearGradient id="paint62_linear_25_3427" x1="1116.1" y1="212.033" x2="1062.52" y2="292.41" gradientUnits="userSpaceOnUse">
<stop stop-color="#020202"/>
<stop offset="1" stop-color="#0D0D0D"/>
</linearGradient>
<linearGradient id="paint63_linear_25_3427" x1="824.899" y1="380.018" x2="771.321" y2="460.395" gradientUnits="userSpaceOnUse">
<stop stop-color="#020202"/>
<stop offset="1" stop-color="#0D0D0D"/>
</linearGradient>
<linearGradient id="paint64_linear_25_3427" x1="824.899" y1="43.5438" x2="771.321" y2="123.921" gradientUnits="userSpaceOnUse">
<stop stop-color="#020202"/>
<stop offset="1" stop-color="#0D0D0D"/>
</linearGradient>
<linearGradient id="paint65_linear_25_3427" x1="824.899" y1="212.033" x2="771.321" y2="292.41" gradientUnits="userSpaceOnUse">
<stop stop-color="#020202"/>
<stop offset="1" stop-color="#0D0D0D"/>
</linearGradient>
<linearGradient id="paint66_linear_25_3427" x1="145.473" y1="380.018" x2="91.8956" y2="460.395" gradientUnits="userSpaceOnUse">
<stop stop-color="#020202"/>
<stop offset="1" stop-color="#0D0D0D"/>
</linearGradient>
<linearGradient id="paint67_linear_25_3427" x1="1019.88" y1="380.018" x2="966.3" y2="460.395" gradientUnits="userSpaceOnUse">
<stop stop-color="#020202"/>
<stop offset="1" stop-color="#0D0D0D"/>
</linearGradient>
<linearGradient id="paint68_linear_25_3427" x1="339.21" y1="380.018" x2="285.632" y2="460.395" gradientUnits="userSpaceOnUse">
<stop stop-color="#020202"/>
<stop offset="1" stop-color="#0D0D0D"/>
</linearGradient>
<linearGradient id="paint69_linear_25_3427" x1="145.473" y1="43.5438" x2="91.8956" y2="123.921" gradientUnits="userSpaceOnUse">
<stop stop-color="#020202"/>
<stop offset="1" stop-color="#0D0D0D"/>
</linearGradient>
<linearGradient id="paint70_linear_25_3427" x1="1019.88" y1="43.5438" x2="966.3" y2="123.921" gradientUnits="userSpaceOnUse">
<stop stop-color="#020202"/>
<stop offset="1" stop-color="#0D0D0D"/>
</linearGradient>
<linearGradient id="paint71_linear_25_3427" x1="339.21" y1="43.5438" x2="285.632" y2="123.921" gradientUnits="userSpaceOnUse">
<stop stop-color="#020202"/>
<stop offset="1" stop-color="#0D0D0D"/>
</linearGradient>
<linearGradient id="paint72_linear_25_3427" x1="145.473" y1="212.033" x2="91.8956" y2="292.41" gradientUnits="userSpaceOnUse">
<stop stop-color="#020202"/>
<stop offset="1" stop-color="#0D0D0D"/>
</linearGradient>
<linearGradient id="paint73_linear_25_3427" x1="1019.88" y1="212.033" x2="966.3" y2="292.41" gradientUnits="userSpaceOnUse">
<stop stop-color="#020202"/>
<stop offset="1" stop-color="#0D0D0D"/>
</linearGradient>
<linearGradient id="paint74_linear_25_3427" x1="339.21" y1="212.033" x2="285.632" y2="292.41" gradientUnits="userSpaceOnUse">
<stop stop-color="#020202"/>
<stop offset="1" stop-color="#0D0D0D"/>
</linearGradient>
</defs>
</svg>
