<svg width="40" height="40" viewBox="0 0 40 40" fill="none" xmlns="http://www.w3.org/2000/svg">
<rect width="40" height="40" rx="10" fill="black"/>
<path d="M19.4987 8.92849L19.4987 8.92848C19.8431 8.80059 20.3165 8.83171 20.6469 9.00211C20.787 9.07436 21.0497 9.27977 21.2376 9.45703C22.1098 10.2796 22.9559 10.8243 23.9537 11.2087L23.8998 11.3486L23.9537 11.2087C24.7769 11.5258 25.437 11.6753 26.5301 11.7891L26.5301 11.7891C26.8651 11.824 27.2552 11.884 27.3953 11.9257L19.4987 8.92849ZM19.4987 8.92849C19.2303 9.02823 19.0853 9.13884 18.6874 9.51386L18.6873 9.51387M19.4987 8.92849L18.6873 9.51387M18.6873 9.51387C17.8808 10.2741 17.0008 10.8348 16.0305 11.2087C15.2073 11.5258 14.5471 11.6753 13.4541 11.7891L13.4541 11.7891M18.6873 9.51387L13.4541 11.7891M13.4541 11.7891C13.1191 11.824 12.729 11.884 12.5889 11.9257L13.4541 11.7891ZM19.0617 30.7544L19.0061 30.8937C17.8632 30.4378 16.9813 29.972 16.0613 29.3373C13.2887 27.4245 11.6753 24.6921 11.1031 20.9652C10.8804 19.5147 10.8482 18.923 10.8501 16.3858C10.8508 15.3315 10.8531 14.7364 10.8635 14.374C10.8739 14.011 10.8927 13.8699 10.9304 13.7285C11.1612 12.8626 11.798 12.1607 12.5889 11.9257L19.0617 30.7544ZM19.0617 30.7544L19.0061 30.8937C19.4355 31.0649 19.7218 31.1618 20.0376 31.1488C20.3483 31.1361 20.6739 31.0172 21.1851 30.8083L21.1283 30.6694L21.1851 30.8083C25.2469 29.1479 27.7626 26.2153 28.6738 22.0701C29.0523 20.3482 29.1805 18.6312 29.1441 15.8251C29.1343 15.0721 29.1254 14.6019 29.1118 14.2933C29.0984 13.9865 29.08 13.8286 29.0475 13.7063C28.8228 12.8621 28.177 12.1579 27.3953 11.9257L19.0617 30.7544ZM20.3458 10.7836L20.3458 10.7836C20.2297 10.6768 20.1212 10.5801 20.0402 10.5105C20.0226 10.4953 20.0065 10.4817 19.9921 10.4696C19.9777 10.4817 19.9616 10.4953 19.944 10.5105C19.863 10.5801 19.7545 10.6768 19.6384 10.7836L19.6384 10.7836C17.9455 12.3401 16.1363 13.1262 13.6816 13.3773C13.3174 13.4145 13.0872 13.4554 12.9267 13.5143L20.3458 10.7836ZM20.3458 10.7836C22.0387 12.3401 23.8479 13.1262 26.3026 13.3773C26.6668 13.4145 26.897 13.4554 27.0575 13.5143C27.2093 13.5701 27.2978 13.6416 27.3776 13.7504C27.4232 13.8126 27.4526 13.8595 27.4754 13.9183C27.4988 13.9785 27.5183 14.0584 27.5338 14.1877C27.5653 14.4505 27.5772 14.8834 27.5927 15.7009C27.6523 18.8564 27.4387 20.946 26.8787 22.7609C25.9274 25.8447 23.8154 28.0374 20.505 29.36L19.992 29.5649L19.479 29.3609C17.9022 28.7336 16.5742 27.889 15.5435 26.8624C14.7236 26.0456 14.1601 25.2418 13.6545 24.1671L13.5188 24.2309L13.6545 24.1671C12.6744 22.0835 12.3175 19.7386 12.3913 15.7438C12.4069 14.9034 12.4187 14.46 12.4501 14.1921C12.4656 14.0602 12.4851 13.9793 12.5085 13.9188C12.5314 13.8598 12.5607 13.813 12.6066 13.7504L20.3458 10.7836ZM16.2407 21.0047L16.2407 21.0047C16.645 22.456 17.5781 23.4431 18.9502 23.8809C19.1133 23.9329 19.2083 23.9584 19.3384 23.9729C19.4737 23.988 19.6488 23.9912 19.972 23.9924C20.5834 23.9946 20.6949 23.9821 20.9571 23.9032L21.0004 24.0468L20.9572 23.9032C22.3481 23.4843 23.3015 22.5142 23.7214 21.085C23.7712 20.9158 23.796 20.8152 23.8101 20.6779C23.8247 20.5357 23.828 20.3524 23.8293 20.0177C23.8317 19.3817 23.8198 19.2637 23.7433 18.9887M16.2407 21.0047L20.1125 15.9963M16.2407 21.0047C16.165 20.7333 16.1517 20.6051 16.1517 19.9968C16.1517 19.611 16.1645 19.3599 16.2072 19.1287C16.2498 18.8985 16.3233 18.6815 16.4526 18.3655C16.8743 17.3354 17.805 16.4783 18.8655 16.1435L18.8203 16.0004M16.2407 21.0047L18.8203 16.0004M23.7433 18.9887L23.8879 18.9486L23.7433 18.9888C23.7433 18.9887 23.7433 18.9887 23.7433 18.9887ZM23.7433 18.9887C23.3396 17.5369 22.3909 16.5353 21.0353 16.1168C20.7513 16.0291 20.6042 16.0084 20.1125 15.9963M20.1125 15.9963C19.7929 15.9884 19.595 15.9905 19.4209 16.0112M20.1125 15.9963L19.4209 16.0112M19.0426 20.6168L20.1645 19.4541C20.503 19.1032 20.8273 18.7739 21.0772 18.5259C21.2021 18.402 21.3089 18.2979 21.3899 18.2213C21.4303 18.1831 21.465 18.1511 21.4926 18.1267C21.5166 18.1054 21.5445 18.0815 21.5673 18.0675C22.0719 17.7557 22.7059 18.1524 22.7059 18.7372C22.7059 18.8006 22.6979 18.8707 22.6857 18.9335C22.6739 18.9938 22.6559 19.0602 22.6301 19.1107L22.6301 19.1107C22.6152 19.1398 22.5858 19.176 22.562 19.2046C22.5333 19.2391 22.495 19.2829 22.4491 19.3343C22.3569 19.4372 22.2309 19.5737 22.0827 19.7317C21.786 20.0478 21.398 20.4527 21.009 20.8533C20.6201 21.2538 20.2296 21.6507 19.9278 21.9508C19.777 22.1008 19.6478 22.2273 19.5516 22.3182C19.5037 22.3635 19.463 22.401 19.4315 22.4284C19.4159 22.442 19.4011 22.4544 19.3881 22.4644L19.3874 22.465C19.3792 22.4713 19.3567 22.4887 19.3302 22.4989C19.3302 22.4989 19.3302 22.4989 19.3301 22.4989L19.2761 22.359L19.0426 20.6168ZM19.0426 20.6168L18.7454 20.3133C18.5842 20.1486 18.4688 20.0372 18.3756 19.9636C18.2793 19.8876 18.1976 19.8446 18.1035 19.8263C17.8382 19.7745 17.544 19.8718 17.3768 20.0784L17.3768 20.0784C17.302 20.1708 17.2479 20.2624 17.2198 20.3735L19.0426 20.6168ZM18.8203 16.0004L18.8655 16.1435C19.0953 16.0709 19.249 16.0316 19.4209 16.0112M18.8203 16.0004L19.4209 16.0112M14.8734 18.1323L15.0151 18.1813L14.8734 18.1323C14.4772 19.279 14.4772 20.7145 14.8734 21.8612L15.0151 21.8123L14.8734 21.8612C15.3562 23.2586 16.3294 24.3905 17.6281 25.0637C18.8347 25.6891 20.3245 25.7949 21.667 25.3547C23.2274 24.843 24.5433 23.5037 25.1108 21.8612C25.4157 20.9789 25.4951 19.8148 25.3123 18.904L25.1653 18.9335L25.3123 18.904C24.9178 16.9378 23.6044 15.3595 21.791 14.6824L21.7385 14.8229L21.791 14.6824C21.1313 14.4361 20.1705 14.3133 19.4755 14.3867C17.3713 14.6091 15.5879 16.0644 14.8734 18.1323Z" fill="white" stroke="white" stroke-width="0.3"/>
</svg>
