<svg width="40" height="40" viewBox="0 0 40 40" fill="none" xmlns="http://www.w3.org/2000/svg">
<rect width="40" height="40" rx="10" fill="black"/>
<path fill-rule="evenodd" clip-rule="evenodd" d="M19.5914 8.0291C18.9611 8.12129 18.6042 8.35939 17.7918 9.22924C17.3897 9.65983 16.9894 10.0395 16.9024 10.0729C16.8153 10.1062 16.3967 10.1335 15.9722 10.1335C15.1177 10.1335 14.69 10.2178 14.2839 10.4661C13.6717 10.8404 13.2163 11.465 13.0716 12.1286C13.0147 12.3895 12.9834 12.8178 12.9834 13.3327C12.9834 13.8126 12.9579 14.1832 12.9198 14.2602C12.8848 14.3307 12.5302 14.7359 12.1319 15.1606C11.566 15.764 11.3711 16.0143 11.2409 16.305C10.9166 17.0294 10.9199 17.8776 11.2498 18.5845C11.3858 18.8758 11.5966 19.1463 12.142 19.7288C12.5348 20.1485 12.8848 20.5495 12.9198 20.6199C12.9579 20.6968 12.9834 21.066 12.9834 21.5414C12.9834 22.4898 13.0435 22.827 13.3069 23.3548C13.6553 24.0532 14.3372 24.5599 15.1166 24.6993L15.5101 24.7697L15.5262 27.6191L15.5422 30.4685L15.6976 30.7986C15.8686 31.1621 16.2767 31.5961 16.6183 31.778C16.9702 31.9653 17.4757 32.0476 17.8125 31.9722C17.9701 31.9369 18.529 31.6835 19.0544 31.409L20.0096 30.9099L21.0592 31.4521L22.1086 31.9944L22.5653 31.9906C22.9236 31.9876 23.0806 31.9573 23.2938 31.8498C23.6924 31.6489 24.1444 31.1908 24.3271 30.8025L24.4842 30.4685L24.5003 27.6191L24.5163 24.7697L24.9099 24.6993C25.6957 24.5587 26.3691 24.0574 26.7219 23.3504C26.9829 22.8272 27.0431 22.4881 27.0431 21.5414C27.0431 21.0656 27.0686 20.6968 27.1068 20.6199C27.1417 20.5495 27.4791 20.1617 27.8563 19.7582C28.3774 19.2008 28.586 18.9312 28.7248 18.636C28.9702 18.1137 29.0548 17.5348 28.9652 16.9902C28.8494 16.2853 28.6802 16.0011 27.8528 15.1219C27.4427 14.6861 27.0801 14.2552 27.047 14.1644C27.0139 14.0735 26.9869 13.6368 26.9869 13.1938C26.9869 12.3021 26.9061 11.8558 26.6682 11.432C26.3095 10.7931 25.7109 10.3179 25.075 10.1669C24.825 10.1076 24.4146 10.0749 23.9211 10.0749C23.4612 10.0749 23.1062 10.0483 23.0324 10.0085C22.9648 9.97198 22.5804 9.60595 22.1781 9.19509C21.7305 8.73809 21.3373 8.39026 21.1648 8.29912C20.6693 8.03708 20.1482 7.94764 19.5914 8.0291ZM20.9631 10.6825C22.1094 11.8472 22.221 11.8993 23.6713 11.9475C25.1985 11.9983 25.1993 11.999 25.246 13.5633C25.2774 14.616 25.2789 14.6258 25.4669 15.0337C25.6195 15.3648 25.7998 15.5978 26.3983 16.237C27.4559 17.3664 27.4572 17.4225 26.4503 18.4681C25.373 19.5869 25.2956 19.7663 25.2487 21.2573C25.1996 22.8169 25.1947 22.822 23.7002 22.8725C22.3279 22.9188 22.232 22.9637 21.1426 24.067L20.3558 24.8639H20.0664H19.777L19.0649 24.1404C17.9058 22.9627 17.8199 22.9226 16.3552 22.8739C14.8279 22.8232 14.8272 22.8224 14.7805 21.2581C14.749 20.2061 14.7475 20.1953 14.5599 19.7875C14.4096 19.4606 14.2308 19.227 13.6842 18.6431C12.5627 17.4454 12.5621 17.4306 13.598 16.3266C14.6753 15.1784 14.783 14.9227 14.7831 13.512C14.7832 12.5364 14.8335 12.3374 15.1384 12.1039C15.2797 11.9958 15.4058 11.9787 16.2913 11.9474C17.7031 11.8975 17.7982 11.8528 18.9268 10.7089L19.6682 9.95749H19.9589H20.2495L20.9631 10.6825ZM23.1907 15.1892C23.1289 15.2243 22.1862 16.1806 21.0959 17.3144L19.1136 19.3758L18.0309 18.2528C17.4354 17.6351 16.8929 17.1006 16.8254 17.0648C16.7578 17.0291 16.5907 16.9999 16.4541 16.9999C15.8062 16.9999 15.345 17.8167 15.6745 18.3804C15.7315 18.4779 16.4396 19.2306 17.2482 20.053C18.8083 21.6397 18.8799 21.6937 19.3158 21.6109C19.5114 21.5738 19.7931 21.301 21.9152 19.0939C23.2242 17.7324 24.3314 16.5471 24.3757 16.46C24.4792 16.256 24.4787 15.866 24.3746 15.6559C24.3298 15.5655 24.2024 15.4083 24.0915 15.3067C23.9195 15.1492 23.8466 15.1222 23.5965 15.1237C23.4352 15.1247 23.2526 15.1542 23.1907 15.1892ZM18.776 26.4639C19.4997 26.8946 20.4315 26.9119 21.1943 26.5086C21.3334 26.435 21.7321 26.0826 22.08 25.7253L22.7127 25.0759V27.511C22.7127 29.2331 22.6942 29.9655 22.6496 30.0121C22.6029 30.0608 22.2767 29.9171 21.3983 29.4608C20.3102 28.8956 20.1888 28.8458 19.957 28.8703C19.7779 28.8893 19.3839 29.0716 18.6088 29.4939C18.0065 29.8221 17.4751 30.0829 17.4278 30.0734C17.3526 30.0583 17.34 29.745 17.3272 27.5655L17.3125 25.0749L17.9177 25.694C18.2506 26.0346 18.6368 26.381 18.776 26.4639Z" fill="white"/>
</svg>
