<svg width="40" height="40" viewBox="0 0 40 40" fill="none" xmlns="http://www.w3.org/2000/svg">
<rect width="40" height="40" rx="10" fill="black"/>
<path d="M11.9523 9.99291L11.9523 9.99287L12.0943 9.83361L12.1689 9.75H12.2809H18.4719C21.4743 9.75 23.0263 9.75085 23.8438 9.76609C24.2497 9.77365 24.4862 9.78485 24.6317 9.80319C24.7049 9.81243 24.7684 9.82496 24.8242 9.84573C24.8881 9.86949 24.9305 9.89979 24.9634 9.9278L24.9634 9.92782L25.1016 10.0458L25.1886 10.12L25.1893 10.2343L25.2186 14.5762L25.2462 18.674L25.976 18.6867L25.976 18.6867L26.7123 18.6994L26.7215 18.5654L26.7215 18.5654L26.9709 18.5825C26.9902 18.3016 27.03 18.1739 27.1347 18.0564L11.9523 9.99291ZM11.9523 9.99291L11.8103 10.1522L11.7475 10.2227M11.9523 9.99291L11.7475 10.2227M11.7475 10.2227L11.747 10.3172M11.7475 10.2227L11.747 10.3172M11.747 10.3172L11.7177 15.833L11.6907 20.9177M11.747 10.3172L11.9399 21.0621L11.6907 20.9177M8.46185 24.354L8.46184 24.354C7.72685 23.6254 7.60015 22.6144 7.90368 21.7892C8.20749 20.9632 8.9531 20.2985 9.97374 20.2871M8.46185 24.354L9.97653 20.5371M8.46185 24.354C8.4991 24.391 8.57206 24.4433 8.64631 24.495C8.72989 24.5532 8.84224 24.6288 8.97839 24.7188C9.25096 24.899 9.62348 25.1398 10.0617 25.4198C10.9383 25.9801 12.0809 26.6994 13.2194 27.4095C14.3578 28.1195 15.4929 28.8207 16.3545 29.3446C16.7852 29.6064 17.1485 29.8246 17.41 29.9775C17.5405 30.0538 17.6474 30.1149 17.7253 30.1574C17.7639 30.1784 17.7982 30.1963 17.8258 30.2096C17.8393 30.216 17.8549 30.2231 17.8705 30.2292C17.8782 30.2322 17.8893 30.2362 17.9023 30.2398C17.9112 30.2423 17.9392 30.25 17.975 30.25C18.0036 30.25 18.0338 30.2449 18.0458 30.2429L18.0471 30.2426C18.0662 30.2394 18.0894 30.235 18.1157 30.2298C18.1685 30.2192 18.2399 30.2039 18.3268 30.1847C18.501 30.1461 18.7425 30.0906 19.0332 30.0223C19.6149 29.8856 20.3966 29.6972 21.2382 29.4901L21.1785 29.2473M8.46185 24.354L21.1785 29.2473M9.97374 20.2871L9.97653 20.5371M9.97374 20.2871C9.97373 20.2871 9.97372 20.2871 9.97371 20.2871L9.97653 20.5371M9.97374 20.2871C10.2247 20.2843 10.4233 20.3012 10.659 20.3829C10.8834 20.4607 11.133 20.5946 11.493 20.8031L11.6907 20.9177M9.97653 20.5371C10.4465 20.5318 10.6444 20.6004 11.3676 21.0194L11.6891 21.2057L11.6907 20.9177M21.1785 29.2473L21.2382 29.4901L24.269 28.7441M21.1785 29.2473L24.269 28.7441M16.4169 14.6939L16.4169 14.6939C16.3814 14.6514 16.333 14.5929 16.2988 14.5001C16.268 14.4162 16.2537 14.3185 16.2449 14.1968C16.2273 13.9539 16.227 13.5249 16.227 12.7126V11.2994H14.7491H13.2718L13.2861 16.5249L13.3007 21.8592L14.0863 22.3251C14.0863 22.3251 14.0863 22.3251 14.0863 22.3251C14.3343 22.4721 14.5672 22.6058 14.7423 22.7026C14.7539 22.709 14.7651 22.7152 14.7761 22.7212C14.8176 22.4257 14.9539 22.1209 15.1349 21.853C15.3557 21.5264 15.6619 21.2259 16.0055 21.0376L16.0055 21.0376L16.3276 20.8611L16.3823 20.8312L16.4446 20.8304L17.9087 20.8122L19.324 20.7946L21.5776 19.8476L23.723 18.9459V15.0807V11.2994H22.2454H20.7678L20.7676 12.6698C20.7675 13.4111 20.7653 13.8296 20.7495 14.0844C20.733 14.3493 20.7 14.4738 20.6211 14.6101L20.4047 14.4849L20.6211 14.6101C20.5545 14.7253 20.4673 14.8409 20.3399 14.9133C20.2028 14.9911 20.0539 14.9999 19.9054 14.9659C19.7648 14.9338 19.6154 14.8619 19.455 14.7658C19.2922 14.6684 19.1026 14.5365 18.88 14.3717M16.4169 14.6939L18.3942 14.1767C18.4354 14.1504 18.4716 14.128 18.5018 14.1097M16.4169 14.6939C16.4873 14.7782 16.5714 14.8659 16.6791 14.922C16.7982 14.9841 16.9246 14.9971 17.0566 14.97C17.1779 14.9451 17.3026 14.8867 17.4333 14.8115C17.5663 14.7351 17.7227 14.631 17.9095 14.5012L16.4169 14.6939ZM18.88 14.3717L19.0287 14.1707L18.88 14.3717C18.88 14.3717 18.88 14.3717 18.88 14.3717ZM18.88 14.3717C18.7554 14.2795 18.6365 14.1967 18.546 14.1379C18.5301 14.1275 18.5153 14.1181 18.5018 14.1097M18.5018 14.1097C18.5194 14.0991 18.5349 14.0899 18.5484 14.0822C18.5671 14.0715 18.5785 14.0655 18.5839 14.0629C18.5869 14.0615 18.5845 14.0628 18.5785 14.065C18.5755 14.0661 18.5687 14.0685 18.5593 14.0709C18.5518 14.0729 18.5318 14.0776 18.5052 14.078C18.4684 14.0785 18.4417 14.0702 18.4365 14.0685L18.4362 14.0684C18.4315 14.067 18.4281 14.0657 18.4262 14.065L18.4228 14.0636C18.4223 14.0634 18.4237 14.064 18.4272 14.0658L18.4408 14.0731C18.4564 14.0818 18.4769 14.094 18.5018 14.1097ZM24.269 28.7441L25.6025 28.7207L26.7097 28.7013V28.7267C26.7097 28.8188 26.719 28.9202 26.7334 29.011L24.269 28.7441ZM19.2077 12.7039C19.2114 12.5339 19.2137 12.3248 19.2137 12.0988V11.2994H18.4681H17.7226V12.0988C17.7226 12.3671 17.7257 12.5815 17.7317 12.7425C17.7582 12.7243 17.7854 12.7052 17.8128 12.6856C17.8128 12.6856 17.8128 12.6856 17.8128 12.6856L17.9583 12.8889L19.2077 12.7039ZM19.2077 12.7039C19.1992 12.6979 19.1906 12.6918 19.182 12.6856C19.182 12.6856 19.182 12.6856 19.182 12.6856L19.0365 12.8889L19.2077 12.7039ZM15.5591 25.0007L15.6952 24.791L15.5591 25.0007C15.9045 25.2249 16.1227 25.3662 16.4883 25.4339C16.8278 25.4968 17.299 25.4969 18.1561 25.4969H19.7033H19.8107L19.8847 25.4189L20.0283 25.2675C20.1694 25.1188 20.2482 24.9335 20.2406 24.7338C20.2331 24.5368 20.1427 24.3553 20.001 24.2059L19.8298 24.0255L19.7559 23.9476L19.6486 23.9475L18.1946 23.9465C17.4888 23.946 17.1367 23.9443 16.9309 23.9272C16.8312 23.9189 16.7799 23.9079 16.7464 23.8969C16.7146 23.8866 16.6881 23.8731 16.6356 23.8417L16.6356 23.8417C16.2059 23.5852 16.1326 22.9437 16.5111 22.5808L16.5111 22.5808C16.5737 22.5208 16.6184 22.4864 16.668 22.461C16.718 22.4356 16.7863 22.4125 16.9017 22.3945C17.1433 22.3568 17.5333 22.3488 18.2715 22.3488H19.6387H19.6894L19.7361 22.329L21.9471 21.3943C21.9471 21.3943 21.9471 21.3943 21.9471 21.3943C23.1687 20.8779 24.2977 20.412 24.4646 20.3543C24.6813 20.2794 24.9005 20.2561 25.8331 20.2533L26.7097 20.2507V23.6728V27.0958L26.008 27.0962C25.4811 27.0965 24.8048 27.1253 24.5011 27.1619C24.341 27.1813 23.8663 27.2805 23.2487 27.4189C22.6232 27.559 21.8336 27.7434 21.0303 27.9383C20.2286 28.1328 19.4923 28.3096 18.9519 28.4378C18.6816 28.5018 18.4607 28.5537 18.3052 28.5894C18.2382 28.6048 18.1839 28.6171 18.1433 28.6261C18.1384 28.6233 18.1332 28.6203 18.1278 28.6171C18.0668 28.5816 17.978 28.5286 17.8636 28.4594C17.6351 28.3213 17.3085 28.1212 16.9076 27.8738C16.106 27.3791 15.0093 26.6965 13.8112 25.9456C12.391 25.0554 11.2926 24.3582 10.54 23.8696C10.1634 23.6252 9.87491 23.4339 9.67642 23.2972C9.5769 23.2286 9.50214 23.1753 9.45097 23.1366C9.42617 23.1178 9.40913 23.1042 9.39839 23.095C9.26924 22.8934 9.24347 22.6344 9.31203 22.3988C9.38261 22.1562 9.54293 21.9701 9.74648 21.8993C9.84269 21.8659 9.89308 21.8553 9.95568 21.8601C10.0266 21.8655 10.1341 21.8929 10.3309 21.9816C10.7279 22.1605 11.3943 22.5441 12.6909 23.3004C14.0467 24.0913 15.3352 24.8554 15.5591 25.0007ZM9.38894 23.0865C9.38899 23.0865 9.38959 23.087 9.39061 23.0881C9.38941 23.087 9.38889 23.0864 9.38894 23.0865ZM30.7506 23.6728V28.1451H29.5072H28.2639V23.6728V19.2006H29.5072H30.7506V23.6728Z" fill="white" stroke="white" stroke-width="0.5"/>
</svg>
