<svg width="40" height="40" viewBox="0 0 40 40" fill="none" xmlns="http://www.w3.org/2000/svg">
<rect width="40" height="40" rx="10" fill="black"/>
<path fill-rule="evenodd" clip-rule="evenodd" d="M19.0145 10.0251C17.1159 10.2413 15.4205 10.9252 13.8873 12.0936C13.0667 12.7189 12.0236 13.8849 11.5224 14.7371L11.3475 15.0345L11.3279 14.1991C11.3084 13.3656 11.3082 13.3633 11.2031 13.2256C10.9138 12.846 10.3211 12.8816 10.0888 13.2925C10.001 13.4476 10.0007 13.4552 10 15.2007C9.99951 16.5935 10.0103 16.9794 10.0527 17.081C10.1206 17.2439 10.3125 17.4059 10.4988 17.4577C10.7016 17.5141 13.6424 17.5119 13.8464 17.4552C14.2736 17.3364 14.4602 16.8126 14.2086 16.4387C14.0312 16.1751 13.9373 16.15 13.0765 16.1358C12.6521 16.1288 12.3048 16.1104 12.3048 16.095C12.3048 16.0418 12.7051 15.365 12.9213 15.0527C13.2488 14.5797 13.5791 14.1957 14.0493 13.7415C15.3669 12.4687 16.9921 11.681 18.8671 11.4065C19.4715 11.3181 20.6447 11.32 21.2334 11.4104C23.4667 11.7534 25.4286 12.8748 26.7842 14.5831C27.9599 16.0648 28.601 17.805 28.6658 19.6904C28.7706 22.7429 27.3144 25.5561 24.7501 27.255C24.2585 27.5808 23.3301 28.0292 22.7651 28.2139C20.9595 28.804 19.069 28.8016 17.2917 28.2068C16.011 27.7782 14.8746 27.0765 13.9248 26.128C12.3665 24.5715 11.4989 22.5925 11.3822 20.3282C11.3605 19.9075 11.3402 19.7845 11.2726 19.6637C11.0451 19.2577 10.4247 19.2339 10.1492 19.6207C10.0715 19.7298 10.056 19.806 10.0444 20.1362C10.0276 20.6146 10.0916 21.2721 10.2199 21.9372C10.8994 25.4607 13.4629 28.3762 16.8766 29.5075C17.9635 29.8677 18.7914 29.9982 20.0025 30C20.9255 30.0013 21.2921 29.9665 22.0763 29.8028C25.8131 29.0226 28.7957 26.1409 29.7078 22.4294C29.8997 21.6483 29.9664 21.1596 29.9936 20.333C30.0505 18.6068 29.73 17.1142 28.9684 15.5573C28.1832 13.9523 26.9718 12.5851 25.4535 11.5904C24.9614 11.268 24.0317 10.8013 23.4632 10.5913C22.9624 10.4062 22.015 10.1647 21.4678 10.0826C20.9678 10.0075 19.4758 9.9726 19.0145 10.0251ZM19.7074 14.7416C19.6011 14.7964 19.0658 15.1442 18.5178 15.5145C17.425 16.2529 17.3454 16.3294 17.3454 16.6421C17.3454 17.0412 17.2714 16.9794 19.6481 18.5658L21.8141 20.0115L22.042 19.995C22.2809 19.9777 22.4169 19.9054 22.5524 19.7238C22.7092 19.5134 22.7096 19.167 22.5532 18.9496C22.5133 18.8941 21.7473 18.3571 20.8511 17.7562L19.2215 16.6638L19.5916 16.4159C19.7952 16.2796 19.9841 16.1692 20.0114 16.1706C20.0388 16.1719 20.7909 16.6606 21.6827 17.2565L23.3044 18.34V20.0031V21.6663L21.9953 22.5402L20.6863 23.4141L20.6668 21.9337C20.6493 20.6094 20.6399 20.4397 20.5775 20.3253C20.5239 20.2271 20.0332 19.8804 18.4656 18.8335C17.3425 18.0834 16.3681 17.441 16.3003 17.4059C16.1472 17.3266 15.8538 17.3234 15.707 17.3994C15.5539 17.4786 15.4024 17.6689 15.3544 17.8422C15.3289 17.9341 15.3145 18.7382 15.3155 20.0227C15.3171 22.1639 15.323 22.2431 15.4955 22.4377C15.5351 22.4824 16.5091 23.1478 17.6598 23.9163C19.041 24.8387 19.8 25.3226 19.8932 25.3401C19.9786 25.3562 20.0935 25.346 20.1845 25.3143C20.351 25.2562 24.3951 22.5664 24.5096 22.4375C24.6824 22.243 24.6881 22.166 24.6881 20.0031C24.6881 17.8403 24.6824 17.7633 24.5096 17.5688C24.4167 17.4643 20.3811 14.7665 20.2114 14.6955C20.0286 14.619 19.9269 14.6283 19.7074 14.7416ZM19.3383 22.2228C19.3383 23.164 19.3281 23.4063 19.2894 23.3832C19.2626 23.3672 18.6647 22.9698 17.9609 22.5001L16.6812 21.6462V20.4528V19.2595L18.0097 20.1464L19.3383 21.0333V22.2228Z" fill="white"/>
</svg>
