<svg width="40" height="40" viewBox="0 0 40 40" fill="none" xmlns="http://www.w3.org/2000/svg">
<rect width="40" height="40" rx="10" fill="black"/>
<path d="M20 7.99997C17.4705 7.99984 15.0431 8.99808 13.2455 10.7777C11.4479 12.5573 10.4253 14.9746 10.4 17.504C10.4 24.0799 18.86 31.3999 19.22 31.7119C19.4374 31.8978 19.714 32 20 32C20.286 32 20.5626 31.8978 20.78 31.7119C21.2 31.3999 29.6 24.0799 29.6 17.504C29.5747 14.9746 28.5521 12.5573 26.7545 10.7777C24.9569 8.99808 22.5295 7.99984 20 7.99997ZM20 29.1799C17.996 27.2719 12.8 21.9799 12.8 17.504C12.8 15.5944 13.5586 13.7631 14.9088 12.4128C16.2591 11.0625 18.0905 10.304 20 10.304C21.9096 10.304 23.7409 11.0625 25.0912 12.4128C26.4414 13.7631 27.2 15.5944 27.2 17.504C27.2 21.9439 22.004 27.2719 20 29.1799Z" fill="white"/>
<path d="M19.9996 12.8001C19.169 12.8001 18.3569 13.0465 17.6663 13.508C16.9756 13.9695 16.4372 14.6254 16.1194 15.3929C15.8015 16.1603 15.7183 17.0048 15.8804 17.8195C16.0424 18.6342 16.4424 19.3826 17.0298 19.97C17.6172 20.5574 18.3655 20.9574 19.1803 21.1194C19.995 21.2815 20.8395 21.1983 21.6069 20.8804C22.3744 20.5625 23.0303 20.0242 23.4918 19.3335C23.9533 18.6428 24.1996 17.8308 24.1996 17.0001C24.1996 15.8862 23.7571 14.8179 22.9695 14.0303C22.1818 13.2426 21.1136 12.8001 19.9996 12.8001ZM19.9996 18.8001C19.6436 18.8001 19.2956 18.6946 18.9996 18.4968C18.7036 18.299 18.4729 18.0179 18.3367 17.689C18.2004 17.3601 18.1648 16.9981 18.2342 16.649C18.3037 16.2998 18.4751 15.9791 18.7269 15.7273C18.9786 15.4756 19.2993 15.3042 19.6485 15.2347C19.9976 15.1653 20.3596 15.2009 20.6885 15.3372C21.0174 15.4734 21.2985 15.7041 21.4963 16.0001C21.6941 16.2961 21.7996 16.6441 21.7996 17.0001C21.7996 17.4775 21.61 17.9354 21.2724 18.2729C20.9349 18.6105 20.477 18.8001 19.9996 18.8001Z" fill="white"/>
</svg>
