<svg width="40" height="40" viewBox="0 0 40 40" fill="none" xmlns="http://www.w3.org/2000/svg">
<rect width="40" height="40" rx="10" fill="black"/>
<path d="M18.4471 10.5958L18.4472 10.5958C18.4617 10.5936 18.4761 10.5914 18.4903 10.5892C18.4568 10.5699 18.4214 10.5499 18.3846 10.5294C18.1191 10.3814 17.9356 10.2653 17.8237 10.1306C17.7002 9.98183 17.6739 9.82447 17.6739 9.63516C17.6739 9.48082 17.6967 9.34461 17.7647 9.22493C17.833 9.10447 17.9374 9.01769 18.0684 8.94411C18.1455 8.90081 18.2308 8.85822 18.3417 8.85107C18.4498 8.84408 18.5648 8.87166 18.7058 8.9276C18.9834 9.03777 19.4285 9.28672 20.241 9.74798L20.167 9.87843L20.241 9.74798C20.6536 9.98219 21.0438 10.2065 21.3402 10.3794C21.4884 10.4658 21.6134 10.5395 21.7063 10.5952C21.7947 10.6483 21.8632 10.6905 21.8896 10.7104L21.8896 10.7104C22.0135 10.8041 22.1031 10.9406 22.1528 11.0834C22.2023 11.2258 22.2164 11.3874 22.1732 11.5344M18.4471 10.5958L21.8858 11.7676L21.9981 11.8671C22.0674 11.7888 22.141 11.6437 22.1732 11.5344M18.4471 10.5958C15.2977 11.0675 12.4184 13.1857 10.9635 16.0973C10.247 17.5311 9.90951 18.8643 9.85615 20.4708C9.75961 23.3779 10.8019 26.0721 12.8189 28.1259C14.8357 30.1795 17.4828 31.2418 20.341 31.1438C21.9162 31.0898 23.234 30.7445 24.6297 30.02L24.5606 29.8868M18.4471 10.5958L24.5606 29.8868M22.1732 11.5344L22.0293 11.4921L22.1732 11.5344C22.1732 11.5344 22.1732 11.5344 22.1732 11.5344ZM24.5606 29.8868L24.6297 30.02C27.4054 28.579 29.4093 25.8533 29.9805 22.7439M24.5606 29.8868L29.9805 22.7439M29.4897 17.2465C29.3405 17.0331 29.0949 16.9349 28.8591 16.9378C28.6233 16.9406 28.379 17.0447 28.2292 17.259C28.138 17.3894 28.0905 17.5202 28.0941 17.7012C28.0975 17.8693 28.1452 18.0794 28.2277 18.3711C28.6181 19.7525 28.6803 21.1093 28.4174 22.4986C28.2239 23.5216 27.7191 24.77 27.1421 25.6523C25.1253 28.7359 21.4217 30.194 17.9084 29.2916C16.3538 28.8923 14.8654 28.0081 13.7864 26.8435C12.1226 25.0477 11.259 22.603 11.4436 20.2187C11.6581 17.4482 13.0257 15.0599 15.2697 13.5316C15.7856 13.1803 16.5896 12.7782 17.2093 12.5621C17.45 12.4781 17.8095 12.3771 18.1372 12.2963C18.085 12.3304 18.0381 12.3628 17.9964 12.3936C17.9003 12.4649 17.8207 12.5361 17.7734 12.6082C17.532 12.9756 17.6672 13.4934 18.0482 13.7158C18.1714 13.7877 18.2961 13.829 18.4323 13.8279C18.5666 13.8268 18.6974 13.7844 18.8334 13.7141L29.4897 17.2465ZM29.4897 17.2465C29.5238 17.2951 29.5594 17.3781 29.5927 17.4647M29.4897 17.2465L29.5927 17.4647M14.8709 18.862L14.7255 18.8248C14.8971 18.1539 15.4002 17.61 16.0588 17.3814C16.6058 17.1916 17.256 17.2628 17.7626 17.5651M14.8709 18.862L18.3845 18.4369L18.5187 18.3698C18.4527 18.2379 18.3225 18.0731 18.1868 17.9288C18.0507 17.7841 17.8929 17.6428 17.7626 17.5651M14.8709 18.862L14.7255 18.8248C14.2796 20.5684 16.077 22.0334 17.6696 21.2061L14.8709 18.862ZM17.7626 17.5651L17.6858 17.6939L17.7626 17.5651C17.7626 17.5651 17.7626 17.5651 17.7626 17.5651ZM18.0042 25.0142L18.0041 25.0142C17.8434 24.9464 17.7145 24.8509 17.632 24.7152C17.5495 24.5795 17.524 24.421 17.5376 24.247C17.549 24.1012 17.6006 23.9615 17.8313 23.5282C18.0653 23.0886 18.497 22.3245 19.2958 20.9175L19.4262 20.9916L19.2958 20.9175C19.7691 20.0839 20.2096 19.3143 20.5382 18.7461C20.7024 18.462 20.8388 18.228 20.9373 18.0612C20.9866 17.9779 21.0267 17.911 21.0562 17.8628C21.0709 17.8388 21.0834 17.8187 21.0933 17.8034C21.1004 17.7925 21.1129 17.7731 21.1251 17.7593C21.1251 17.7593 21.1252 17.7593 21.1252 17.7592L21.2374 17.8588C21.2872 17.8025 21.385 17.7297 21.4546 17.6969L18.0042 25.0142ZM18.0042 25.0142C18.1492 25.0754 18.2935 25.1003 18.4358 25.0751C18.5786 25.0499 18.704 24.9769 18.8155 24.869L18.8156 24.869C18.8312 24.8539 18.8458 24.8345 18.8561 24.8203C18.8683 24.8035 18.8825 24.7827 18.8984 24.7587C18.9303 24.7105 18.9714 24.6455 19.0207 24.5654C19.1195 24.4049 19.2536 24.1805 19.4167 23.9027C19.7431 23.3469 20.1873 22.5748 20.7018 21.6674C21.4622 20.3262 21.8934 19.5604 22.1366 19.1058C22.258 18.8788 22.3346 18.7257 22.3821 18.6156C22.4297 18.5054 22.4524 18.429 22.4589 18.3577L18.0042 25.0142ZM16.7047 18.8649C16.7045 18.8649 16.7045 18.8649 16.7049 18.8649C16.7065 18.8651 16.7134 18.8656 16.7269 18.8683C16.7423 18.8714 16.7616 18.8764 16.7836 18.8831C16.8279 18.8967 16.8768 18.9158 16.9184 18.9363L16.9185 18.9363C16.9805 18.9669 17.0503 19.0324 17.1054 19.1173C17.1609 19.203 17.1884 19.2882 17.1884 19.3473C17.1884 19.4311 17.1513 19.5343 17.0818 19.6287C17.0126 19.7229 16.9229 19.7923 16.8376 19.821C16.6914 19.8701 16.5275 19.8248 16.4019 19.712C16.2764 19.5993 16.2086 19.4359 16.238 19.2762L16.238 19.2762C16.2554 19.1816 16.3194 19.0775 16.4141 18.9948C16.5091 18.9119 16.6168 18.8663 16.7047 18.8649ZM16.7047 18.8649L16.7023 18.7149L16.7048 18.8649C16.7048 18.8649 16.7048 18.8649 16.7047 18.8649ZM22.6873 21.2329C22.3224 21.3517 22.0693 21.5149 21.8026 21.802L21.8026 21.802C21.428 22.2054 21.2413 22.6789 21.2413 23.227C21.2413 23.775 21.428 24.2486 21.8026 24.6519L21.8026 24.6519C22.1947 25.074 22.7154 25.3114 23.2649 25.3114C25.064 25.3114 26.0034 23.1642 24.7971 21.8262C24.2635 21.2343 23.4218 20.9938 22.6873 21.2329ZM22.6873 21.2329L22.7337 21.3755L22.6873 21.2329C22.6873 21.2329 22.6873 21.2329 22.6873 21.2329ZM29.9805 22.7439C30.2269 21.4031 30.2039 19.92 29.9162 18.5744M29.9805 22.7439L29.9162 18.5744M29.9162 18.5744C29.865 18.3347 29.7848 18.0429 29.7065 17.7954M29.9162 18.5744L29.7065 17.7954M29.7065 17.7954C29.6673 17.6715 29.6281 17.5571 29.5927 17.4647M29.7065 17.7954L29.5927 17.4647M18.5418 12.0512C18.6004 12.0395 18.6535 12.0298 18.6994 12.0226C18.7012 12.0488 18.71 12.079 18.7334 12.1062C18.6956 12.1317 18.6497 12.1611 18.5975 12.1931C18.5954 12.1935 18.5932 12.1939 18.591 12.1944L18.5418 12.0512ZM23.7501 23.2249L23.7501 23.2249L22.7444 22.943L22.8799 23.0074C22.8799 23.0074 22.8799 23.0074 22.8799 23.0074C23.0017 22.7512 23.3366 22.6709 23.5318 22.8193L23.6226 22.6999L23.5318 22.8193C23.6183 22.8851 23.6696 22.9437 23.7009 23.0027C23.7318 23.0608 23.7487 23.1296 23.7501 23.2249Z" fill="white" stroke="white" stroke-width="0.3"/>
</svg>
