<svg width="17" height="20" viewBox="0 0 17 20" fill="none" xmlns="http://www.w3.org/2000/svg">
<g id="eva:pin-outline">
<g id="evaPinOutline0">
<g id="evaPinOutline1">
<g id="evaPinOutline2">
<path id="Vector" d="M8.15907 1.00146e-08C6.05112 -0.00010539 4.02832 0.831759 2.53031 2.31479C1.0323 3.79782 0.180145 5.81216 0.159065 7.92C0.159065 13.4 7.20907 19.5 7.50907 19.76C7.6902 19.9149 7.92071 20.0001 8.15907 20.0001C8.39742 20.0001 8.62793 19.9149 8.80906 19.76C9.15907 19.5 16.1591 13.4 16.1591 7.92C16.138 5.81216 15.2858 3.79782 13.7878 2.31479C12.2898 0.831759 10.267 -0.00010539 8.15907 1.00146e-08ZM8.15907 17.65C6.48907 16.06 2.15907 11.65 2.15907 7.92C2.15907 6.3287 2.79121 4.80258 3.91642 3.67736C5.04164 2.55214 6.56777 1.92 8.15907 1.92C9.75036 1.92 11.2765 2.55214 12.4017 3.67736C13.5269 4.80258 14.1591 6.3287 14.1591 7.92C14.1591 11.62 9.82907 16.06 8.15907 17.65Z" fill="white"/>
<path id="Vector_2" d="M8.15907 4C7.46683 4 6.79014 4.20527 6.21457 4.58986C5.639 4.97444 5.1904 5.52107 4.92549 6.16061C4.66058 6.80015 4.59127 7.50388 4.72632 8.18282C4.86137 8.86175 5.19471 9.48539 5.68419 9.97487C6.17368 10.4644 6.79732 10.7977 7.47625 10.9327C8.15518 11.0678 8.85892 10.9985 9.49846 10.7336C10.138 10.4687 10.6846 10.0201 11.0692 9.4445C11.4538 8.86892 11.6591 8.19223 11.6591 7.5C11.6591 6.57174 11.2903 5.6815 10.6339 5.02513C9.97756 4.36875 9.08733 4 8.15907 4ZM8.15907 9C7.8624 9 7.57239 8.91203 7.32571 8.7472C7.07904 8.58238 6.88678 8.34811 6.77325 8.07403C6.65972 7.79994 6.63001 7.49834 6.68789 7.20736C6.74577 6.91639 6.88863 6.64912 7.09841 6.43934C7.30819 6.22956 7.57546 6.0867 7.86643 6.02882C8.1574 5.97094 8.459 6.00065 8.73309 6.11418C9.00718 6.22771 9.24145 6.41997 9.40627 6.66665C9.57109 6.91332 9.65907 7.20333 9.65907 7.5C9.65907 7.89782 9.50103 8.27936 9.21973 8.56066C8.93842 8.84196 8.55689 9 8.15907 9Z" fill="white"/>
</g>
</g>
</g>
</g>
</svg>
