<svg width="23" height="16" viewBox="0 0 23 16" fill="none" xmlns="http://www.w3.org/2000/svg">
<g id="iconoir:cash">
<g id="Group">
<path id="Vector" d="M1.52258 13V3C1.52258 2.46957 1.7333 1.96086 2.10837 1.58579C2.48344 1.21071 2.99215 1 3.52258 1H19.5226C20.053 1 20.5617 1.21071 20.9368 1.58579C21.3119 1.96086 21.5226 2.46957 21.5226 3V13C21.5226 13.5304 21.3119 14.0391 20.9368 14.4142C20.5617 14.7893 20.053 15 19.5226 15H3.52258C2.99215 15 2.48344 14.7893 2.10837 14.4142C1.7333 14.0391 1.52258 13.5304 1.52258 13Z" stroke="white" stroke-width="1.5" stroke-linecap="round" stroke-linejoin="round"/>
<path id="Vector_2" d="M18.0226 8.01L18.0326 7.999M5.02258 8.01L5.03258 7.999M11.5226 11C10.7269 11 9.96387 10.6839 9.40126 10.1213C8.83865 9.55871 8.52258 8.79565 8.52258 8C8.52258 7.20435 8.83865 6.44129 9.40126 5.87868C9.96387 5.31607 10.7269 5 11.5226 5C12.3182 5 13.0813 5.31607 13.6439 5.87868C14.2065 6.44129 14.5226 7.20435 14.5226 8C14.5226 8.79565 14.2065 9.55871 13.6439 10.1213C13.0813 10.6839 12.3182 11 11.5226 11Z" stroke="white" stroke-width="1.5" stroke-linecap="round" stroke-linejoin="round"/>
</g>
</g>
</svg>
