<svg width="269" height="40" viewBox="0 0 269 40" fill="none" xmlns="http://www.w3.org/2000/svg">
<rect width="269" height="40" rx="10" fill="url(#paint0_linear_43_10320)"/>
<path d="M89.7605 9.90649H98.2391C101.469 9.90649 104.093 12.5308 104.093 15.7608V24.2394C104.093 25.792 103.477 27.2811 102.379 28.379C101.281 29.4768 99.7918 30.0936 98.2391 30.0936H89.7605C86.5306 30.0936 83.9062 27.4693 83.9062 24.2394V15.7608C83.9062 14.2081 84.523 12.7191 85.6209 11.6212C86.7188 10.5233 88.2079 9.90649 89.7605 9.90649ZM89.5586 11.9252C88.5949 11.9252 87.6707 12.308 86.9892 12.9895C86.3078 13.6709 85.925 14.5952 85.925 15.5589V24.4412C85.925 26.4499 87.55 28.0749 89.5586 28.0749H98.441C99.4047 28.0749 100.329 27.6921 101.01 27.0106C101.692 26.3292 102.075 25.4049 102.075 24.4412V15.5589C102.075 13.5503 100.45 11.9252 98.441 11.9252H89.5586ZM99.2989 13.4392C99.6336 13.4392 99.9545 13.5722 100.191 13.8088C100.428 14.0454 100.561 14.3663 100.561 14.7009C100.561 15.0356 100.428 15.3565 100.191 15.5931C99.9545 15.8297 99.6336 15.9626 99.2989 15.9626C98.9643 15.9626 98.6434 15.8297 98.4068 15.5931C98.1702 15.3565 98.0372 15.0356 98.0372 14.7009C98.0372 14.3663 98.1702 14.0454 98.4068 13.8088C98.6434 13.5722 98.9643 13.4392 99.2989 13.4392ZM93.9998 14.9533C95.3383 14.9533 96.622 15.485 97.5684 16.4314C98.5149 17.3779 99.0466 18.6616 99.0466 20.0001C99.0466 21.3386 98.5149 22.6222 97.5684 23.5687C96.622 24.5151 95.3383 25.0468 93.9998 25.0468C92.6613 25.0468 91.3777 24.5151 90.4312 23.5687C89.4847 22.6222 88.953 21.3386 88.953 20.0001C88.953 18.6616 89.4847 17.3779 90.4312 16.4314C91.3777 15.485 92.6613 14.9533 93.9998 14.9533ZM93.9998 16.972C93.1967 16.972 92.4265 17.291 91.8586 17.8589C91.2908 18.4268 90.9717 19.197 90.9717 20.0001C90.9717 20.8032 91.2908 21.5734 91.8586 22.1412C92.4265 22.7091 93.1967 23.0281 93.9998 23.0281C94.8029 23.0281 95.5731 22.7091 96.141 22.1412C96.7089 21.5734 97.0279 20.8032 97.0279 20.0001C97.0279 19.197 96.7089 18.4268 96.141 17.8589C95.5731 17.291 94.8029 16.972 93.9998 16.972Z" fill="white"/>
<path d="M120.074 25V15.2H121.684V25H120.074ZM127.226 17.818C128.038 17.818 128.687 18.0793 129.172 18.602C129.667 19.1153 129.914 19.8153 129.914 20.702V25H128.402V20.856C128.402 20.3333 128.262 19.932 127.982 19.652C127.702 19.372 127.319 19.232 126.834 19.232C126.283 19.232 125.849 19.4047 125.532 19.75C125.215 20.086 125.056 20.5853 125.056 21.248V25H123.544V18H125.056V18.896C125.523 18.1773 126.246 17.818 127.226 17.818ZM132.9 19.932C132.9 20.1467 133.012 20.324 133.236 20.464C133.46 20.5947 133.787 20.7207 134.216 20.842C134.543 20.9167 134.827 20.996 135.07 21.08C135.313 21.164 135.569 21.29 135.84 21.458C136.111 21.6167 136.316 21.8313 136.456 22.102C136.605 22.3633 136.675 22.6713 136.666 23.026C136.666 23.698 136.405 24.2253 135.882 24.608C135.359 24.9907 134.711 25.182 133.936 25.182C133.245 25.182 132.653 25.0373 132.158 24.748C131.663 24.4587 131.304 24.0573 131.08 23.544L132.382 22.788C132.615 23.46 133.133 23.796 133.936 23.796C134.729 23.796 135.126 23.5347 135.126 23.012C135.126 22.6293 134.683 22.3307 133.796 22.116C133.46 22.032 133.175 21.948 132.942 21.864C132.718 21.78 132.466 21.6587 132.186 21.5C131.915 21.3413 131.705 21.1313 131.556 20.87C131.416 20.6087 131.351 20.3053 131.36 19.96C131.36 19.316 131.603 18.798 132.088 18.406C132.583 18.014 133.194 17.818 133.922 17.818C134.501 17.818 135.014 17.9487 135.462 18.21C135.919 18.462 136.269 18.8167 136.512 19.274L135.238 19.988C135.005 19.456 134.566 19.19 133.922 19.19C133.623 19.19 133.376 19.2553 133.18 19.386C132.993 19.5167 132.9 19.6987 132.9 19.932ZM141.628 18V19.456H139.892V22.816C139.892 23.1053 139.957 23.3153 140.088 23.446C140.219 23.5673 140.41 23.6373 140.662 23.656C140.923 23.6653 141.245 23.6607 141.628 23.642V25C140.471 25.14 139.64 25.042 139.136 24.706C138.632 24.3607 138.38 23.7307 138.38 22.816V19.456H137.092V18H138.38V16.488L139.892 16.04V18H141.628ZM148.256 18.994V18H149.768V25H148.256V23.992C147.687 24.7853 146.87 25.182 145.806 25.182C144.845 25.182 144.023 24.8273 143.342 24.118C142.661 23.4087 142.32 22.536 142.32 21.5C142.32 20.464 142.661 19.5913 143.342 18.882C144.023 18.1727 144.845 17.818 145.806 17.818C146.87 17.818 147.687 18.21 148.256 18.994ZM144.462 23.11C144.882 23.53 145.409 23.74 146.044 23.74C146.679 23.74 147.206 23.53 147.626 23.11C148.046 22.6807 148.256 22.144 148.256 21.5C148.256 20.856 148.046 20.324 147.626 19.904C147.206 19.4747 146.679 19.26 146.044 19.26C145.409 19.26 144.882 19.4747 144.462 19.904C144.042 20.324 143.832 20.856 143.832 21.5C143.832 22.1347 144.042 22.6713 144.462 23.11ZM157.102 19.036V18H158.586V24.678C158.586 25.742 158.236 26.5587 157.536 27.128C156.846 27.6973 155.996 27.982 154.988 27.982C153.374 27.982 152.268 27.4173 151.67 26.288L152.972 25.532C153.336 26.2507 154.018 26.61 155.016 26.61C155.67 26.61 156.178 26.4373 156.542 26.092C156.916 25.756 157.102 25.2847 157.102 24.678V23.824C156.533 24.636 155.721 25.042 154.666 25.042C153.686 25.042 152.851 24.692 152.16 23.992C151.479 23.2827 151.138 22.4287 151.138 21.43C151.138 20.422 151.479 19.5727 152.16 18.882C152.842 18.1727 153.677 17.818 154.666 17.818C155.721 17.818 156.533 18.224 157.102 19.036ZM153.28 22.998C153.71 23.418 154.242 23.628 154.876 23.628C155.511 23.628 156.038 23.418 156.458 22.998C156.888 22.578 157.102 22.0553 157.102 21.43C157.102 20.8047 156.888 20.282 156.458 19.862C156.038 19.442 155.511 19.232 154.876 19.232C154.242 19.232 153.71 19.442 153.28 19.862C152.86 20.282 152.65 20.8047 152.65 21.43C152.65 22.0553 152.86 22.578 153.28 22.998ZM161.861 18V19.176C162.243 18.308 162.962 17.874 164.017 17.874V19.512C163.447 19.4747 162.943 19.6147 162.505 19.932C162.075 20.24 161.861 20.7533 161.861 21.472V25H160.349V18H161.861ZM170.35 18.994V18H171.862V25H170.35V23.992C169.78 24.7853 168.964 25.182 167.9 25.182C166.938 25.182 166.117 24.8273 165.436 24.118C164.754 23.4087 164.414 22.536 164.414 21.5C164.414 20.464 164.754 19.5913 165.436 18.882C166.117 18.1727 166.938 17.818 167.9 17.818C168.964 17.818 169.78 18.21 170.35 18.994ZM166.556 23.11C166.976 23.53 167.503 23.74 168.138 23.74C168.772 23.74 169.3 23.53 169.72 23.11C170.14 22.6807 170.35 22.144 170.35 21.5C170.35 20.856 170.14 20.324 169.72 19.904C169.3 19.4747 168.772 19.26 168.138 19.26C167.503 19.26 166.976 19.4747 166.556 19.904C166.136 20.324 165.926 20.856 165.926 21.5C165.926 22.1347 166.136 22.6713 166.556 23.11ZM181.268 17.818C182.062 17.818 182.701 18.0747 183.186 18.588C183.672 19.1013 183.914 19.792 183.914 20.66V25H182.402V20.758C182.402 20.282 182.281 19.9087 182.038 19.638C181.796 19.3673 181.464 19.232 181.044 19.232C180.568 19.232 180.195 19.3907 179.924 19.708C179.654 20.016 179.518 20.4733 179.518 21.08V25H178.006V20.758C178.006 20.2727 177.89 19.8993 177.656 19.638C177.432 19.3673 177.11 19.232 176.69 19.232C176.224 19.232 175.846 19.3907 175.556 19.708C175.276 20.0253 175.136 20.4827 175.136 21.08V25H173.624V18H175.136V18.84C175.584 18.1587 176.252 17.818 177.138 17.818C178.034 17.818 178.697 18.1867 179.126 18.924C179.584 18.1867 180.298 17.818 181.268 17.818Z" fill="white"/>
<defs>
<linearGradient id="paint0_linear_43_10320" x1="-2.67669e-06" y1="12" x2="258.262" y2="43.0145" gradientUnits="userSpaceOnUse">
<stop stop-color="#5D50A2"/>
<stop offset="0.39972" stop-color="#D61E7C"/>
<stop offset="0.660405" stop-color="#EB2440"/>
<stop offset="1" stop-color="#F79446"/>
</linearGradient>
</defs>
</svg>
