<svg width="50" height="50" viewBox="0 0 50 50" fill="none" xmlns="http://www.w3.org/2000/svg">
<path fill-rule="evenodd" clip-rule="evenodd" d="M25 50C38.8071 50 50 38.8071 50 25C50 11.1929 38.8071 0 25 0C11.1929 0 0 11.1929 0 25C0 38.8071 11.1929 50 25 50ZM29.725 13.75H20.275C18.5445 13.75 16.8848 14.4375 15.6611 15.6611C14.4375 16.8848 13.75 18.5445 13.75 20.275V29.725C13.75 33.325 16.675 36.25 20.275 36.25H29.725C31.4555 36.25 33.1152 35.5625 34.3389 34.3389C35.5625 33.1152 36.25 31.4555 36.25 29.725V20.275C36.25 16.675 33.325 13.75 29.725 13.75ZM17.1862 17.1862C17.9457 16.4267 18.9759 16 20.05 16H29.95C32.1887 16 34 17.8112 34 20.05V29.95C34 31.0241 33.5733 32.0543 32.8138 32.8138C32.0543 33.5733 31.0241 34 29.95 34H20.05C17.8112 34 16 32.1887 16 29.95V20.05C16 18.9759 16.4267 17.9457 17.1862 17.1862ZM31.9006 18.0994C31.6369 17.8357 31.2792 17.6875 30.9062 17.6875C30.5333 17.6875 30.1756 17.8357 29.9119 18.0994C29.6481 18.3631 29.5 18.7208 29.5 19.0937C29.5 19.4667 29.6481 19.8244 29.9119 20.0881C30.1756 20.3518 30.5333 20.5 30.9062 20.5C31.2792 20.5 31.6369 20.3518 31.9006 20.0881C32.1643 19.8244 32.3125 19.4667 32.3125 19.0937C32.3125 18.7208 32.1643 18.3631 31.9006 18.0994ZM28.9775 21.0225C27.9226 19.9676 26.4918 19.375 25 19.375C23.5082 19.375 22.0774 19.9676 21.0225 21.0225C19.9676 22.0774 19.375 23.5082 19.375 25C19.375 26.4918 19.9676 27.9226 21.0225 28.9775C22.0774 30.0324 23.5082 30.625 25 30.625C26.4918 30.625 27.9226 30.0324 28.9775 28.9775C30.0324 27.9226 30.625 26.4918 30.625 25C30.625 23.5082 30.0324 22.0774 28.9775 21.0225ZM22.6135 22.6135C23.2464 21.9806 24.1049 21.625 25 21.625C25.8951 21.625 26.7535 21.9806 27.3865 22.6135C28.0194 23.2464 28.375 24.1049 28.375 25C28.375 25.8951 28.0194 26.7535 27.3865 27.3865C26.7535 28.0194 25.8951 28.375 25 28.375C24.1049 28.375 23.2464 28.0194 22.6135 27.3865C21.9806 26.7535 21.625 25.8951 21.625 25C21.625 24.1049 21.9806 23.2464 22.6135 22.6135Z" fill="url(#paint0_linear_170_17908)"/>
<defs>
<linearGradient id="paint0_linear_170_17908" x1="1.2704e-06" y1="10.7143" x2="50.4668" y2="14.9107" gradientUnits="userSpaceOnUse">
<stop stop-color="#5D50A2"/>
<stop offset="0.39972" stop-color="#D61E7C"/>
<stop offset="0.660405" stop-color="#EB2440"/>
<stop offset="1" stop-color="#F79446"/>
</linearGradient>
</defs>
</svg>
