<svg width="52" height="52" viewBox="0 0 52 52" fill="none" xmlns="http://www.w3.org/2000/svg">
<mask id="mask0_43_35313" style="mask-type:alpha" maskUnits="userSpaceOnUse" x="0" y="0" width="52" height="52">
<circle cx="26" cy="26" r="26" fill="#D9D9D9"/>
</mask>
<g mask="url(#mask0_43_35313)">
<path d="M15.4513 29.6289L22.2932 33.5791V41.4794L15.4513 45.4295L8.60947 41.4794V33.5791L15.4513 29.6289Z" fill="url(#paint0_linear_43_35313)"/>
<path d="M15.4513 5.97266L22.2932 9.92281V17.8231L15.4513 21.7733L8.60947 17.8231V9.92281L15.4513 5.97266Z" fill="url(#paint1_linear_43_35313)"/>
<path d="M1.77152 29.5947L8.61338 33.5449V41.4452L1.77152 45.3953L-5.07034 41.4452L-5.07034 33.5449L1.77152 29.5947Z" fill="url(#paint2_linear_43_35313)"/>
<path d="M1.77152 5.93945L8.61338 9.8896V17.7899L1.77152 21.7401L-5.07034 17.7899L-5.07034 9.8896L1.77152 5.93945Z" fill="url(#paint3_linear_43_35313)"/>
<path d="M29.0918 29.5947L35.9337 33.5449V41.4452L29.0918 45.3953L22.25 41.4452V33.5449L29.0918 29.5947Z" fill="url(#paint4_linear_43_35313)"/>
<path d="M42.7737 29.5947L49.6156 33.5449V41.4452L42.7737 45.3953L35.9319 41.4452V33.5449L42.7737 29.5947Z" fill="url(#paint5_linear_43_35313)"/>
<path d="M56.4432 29.5947L63.2851 33.5449V41.4452L56.4432 45.3953L49.6013 41.4452V33.5449L56.4432 29.5947Z" fill="url(#paint6_linear_43_35313)"/>
<path d="M29.0918 5.93945L35.9337 9.8896V17.7899L29.0918 21.7401L22.25 17.7899V9.8896L29.0918 5.93945Z" fill="url(#paint7_linear_43_35313)"/>
<path d="M42.7737 5.93945L49.6156 9.8896V17.7899L42.7737 21.7401L35.9319 17.7899V9.8896L42.7737 5.93945Z" fill="url(#paint8_linear_43_35313)"/>
<path d="M56.4432 5.93945L63.2851 9.8896V17.7899L56.4432 21.7401L49.6013 17.7899V9.8896L56.4432 5.93945Z" fill="url(#paint9_linear_43_35313)"/>
<path d="M-5.02902 17.8135L1.81284 21.7636V29.6639L-5.02902 33.6141L-11.8709 29.6639V21.7636L-5.02902 17.8135Z" fill="url(#paint10_linear_43_35313)"/>
<path d="M22.2913 41.4697L29.1332 45.4199V53.3202L22.2913 57.2703L15.4494 53.3202V45.4199L22.2913 41.4697Z" fill="url(#paint11_linear_43_35313)"/>
<path d="M22.2913 17.8135L29.1332 21.7636V29.6639L22.2913 33.6141L15.4494 29.6639V21.7636L22.2913 17.8135Z" fill="url(#paint12_linear_43_35313)"/>
<path d="M22.2913 -5.83691L29.1332 -1.88676V6.01354L22.2913 9.96369L15.4494 6.01354V-1.88676L22.2913 -5.83691Z" fill="url(#paint13_linear_43_35313)"/>
<path d="M8.61142 41.4355L15.4533 45.3857V53.286L8.61142 57.2362L1.76956 53.286L1.76956 45.3857L8.61142 41.4355Z" fill="url(#paint14_linear_43_35313)"/>
<path d="M8.61142 17.7803L15.4533 21.7304V29.6307L8.61142 33.5809L1.76956 29.6307L1.76956 21.7304L8.61142 17.7803Z" fill="url(#paint15_linear_43_35313)"/>
<path d="M8.61142 -5.87012L15.4533 -1.91997V5.98034L8.61142 9.93049L1.76956 5.98034L1.76956 -1.91997L8.61142 -5.87012Z" fill="url(#paint16_linear_43_35313)"/>
<path d="M35.9297 41.4355L42.7715 45.3857V53.286L35.9297 57.2362L29.0878 53.286V45.3857L35.9297 41.4355Z" fill="url(#paint17_linear_43_35313)"/>
<path d="M49.6095 41.4355L56.4514 45.3857V53.286L49.6095 57.2362L42.7677 53.286V45.3857L49.6095 41.4355Z" fill="url(#paint18_linear_43_35313)"/>
<path d="M35.9297 17.7803L42.7715 21.7304V29.6307L35.9297 33.5809L29.0878 29.6307V21.7304L35.9297 17.7803Z" fill="url(#paint19_linear_43_35313)"/>
<path d="M35.9297 -5.87012L42.7715 -1.91997V5.98034L35.9297 9.93049L29.0878 5.98034V-1.91997L35.9297 -5.87012Z" fill="url(#paint20_linear_43_35313)"/>
<path d="M49.6095 17.7803L56.4514 21.7304V29.6307L49.6095 33.5809L42.7677 29.6307V21.7304L49.6095 17.7803Z" fill="url(#paint21_linear_43_35313)"/>
<path d="M49.6095 -5.87012L56.4514 -1.91997V5.98034L49.6095 9.93049L42.7677 5.98034V-1.91997L49.6095 -5.87012Z" fill="url(#paint22_linear_43_35313)"/>
</g>
<circle cx="25.7785" cy="25.9387" r="24.5853" stroke="black" stroke-width="0.23796"/>
<path fill-rule="evenodd" clip-rule="evenodd" d="M31.6304 10.584L31.7678 10.8219L37.419 20.61L37.5597 20.8539L37.5593 20.8546L37.6463 21.0052L42.5175 29.4424L42.6549 29.6804L42.5175 29.9183L37.6463 38.3555L37.5089 38.5935H37.2341H27.4916H27.2169L27.0795 38.3555L25.7086 35.9811L24.3377 38.3555L24.2003 38.5935H23.9255H14.183H13.9083L13.7709 38.3555L8.89965 29.9183L8.76227 29.6804L8.89965 29.4424L13.7709 21.0052L13.8538 20.8615L13.8492 20.8539L13.99 20.61L19.6412 10.8219L19.7786 10.584H20.0533H31.3556H31.6304ZM32.374 13.7756L36.4106 20.7672L27.4916 20.7672H27.2169L27.0795 21.0052L25.7086 23.3797L24.3377 21.0052L24.2003 20.7672H23.9255L14.9984 20.7672L19.035 13.7756H32.374ZM31.8244 12.8237L31.0809 11.5358L20.3281 11.5358L19.5845 12.8237H31.8244ZM9.86136 29.6804L10.8605 27.9497L16.5206 37.6417H14.4578L9.86136 29.6804ZM17.6229 37.6417L11.4085 27.0006L14.4167 21.7902L19.6462 30.4191L19.7851 30.6484H20.0532H22.6297L25.159 35.0292L23.6507 37.6417H17.6229ZM20.3213 29.6965H22.0802L22.0709 29.6804L22.2082 29.4424L25.159 24.3315L23.6507 21.7191H15.4866L20.3213 29.6965ZM25.7086 34.0774L23.7288 30.6484L27.6883 30.6484L25.7086 34.0774ZM23.1793 29.6965H28.2379L28.2472 29.6804L25.7086 25.2833L23.17 29.6804L23.1793 29.6965ZM29.3463 29.6804L29.3369 29.6965H31.0875L35.9224 21.7191H27.7664L26.2581 24.3315L29.2089 29.4424L29.3463 29.6804ZM31.3555 30.6484H28.7874L26.2581 35.0292L27.7664 37.6417H34.0139L40.1178 27.1897L36.9964 21.7833L31.7625 30.4191L31.6236 30.6484H31.3555ZM40.6658 28.1388L35.1161 37.6417H36.9593L41.5558 29.6804L40.6658 28.1388Z" fill="url(#paint23_linear_43_35313)"/>
<defs>
<linearGradient id="paint0_linear_43_35313" x1="19.1952" y1="31.6712" x2="11.6791" y2="42.9468" gradientUnits="userSpaceOnUse">
<stop stop-color="#EAEAEA"/>
<stop offset="1" stop-color="#F3F3F3"/>
</linearGradient>
<linearGradient id="paint1_linear_43_35313" x1="19.1952" y1="8.01497" x2="11.6791" y2="19.2905" gradientUnits="userSpaceOnUse">
<stop stop-color="#EAEAEA"/>
<stop offset="1" stop-color="#F3F3F3"/>
</linearGradient>
<linearGradient id="paint2_linear_43_35313" x1="5.51542" y1="31.637" x2="-2.00069" y2="42.9126" gradientUnits="userSpaceOnUse">
<stop stop-color="#EAEAEA"/>
<stop offset="1" stop-color="#F3F3F3"/>
</linearGradient>
<linearGradient id="paint3_linear_43_35313" x1="5.51542" y1="7.98177" x2="-2.00069" y2="19.2573" gradientUnits="userSpaceOnUse">
<stop stop-color="#EAEAEA"/>
<stop offset="1" stop-color="#F3F3F3"/>
</linearGradient>
<linearGradient id="paint4_linear_43_35313" x1="32.8357" y1="31.637" x2="25.3196" y2="42.9126" gradientUnits="userSpaceOnUse">
<stop stop-color="#EAEAEA"/>
<stop offset="1" stop-color="#F3F3F3"/>
</linearGradient>
<linearGradient id="paint5_linear_43_35313" x1="46.5176" y1="31.637" x2="39.0015" y2="42.9126" gradientUnits="userSpaceOnUse">
<stop stop-color="#EAEAEA"/>
<stop offset="1" stop-color="#F3F3F3"/>
</linearGradient>
<linearGradient id="paint6_linear_43_35313" x1="60.1871" y1="31.637" x2="52.671" y2="42.9126" gradientUnits="userSpaceOnUse">
<stop stop-color="#EAEAEA"/>
<stop offset="1" stop-color="#F3F3F3"/>
</linearGradient>
<linearGradient id="paint7_linear_43_35313" x1="32.8357" y1="7.98177" x2="25.3196" y2="19.2573" gradientUnits="userSpaceOnUse">
<stop stop-color="#EAEAEA"/>
<stop offset="1" stop-color="#F3F3F3"/>
</linearGradient>
<linearGradient id="paint8_linear_43_35313" x1="46.5176" y1="7.98177" x2="39.0015" y2="19.2573" gradientUnits="userSpaceOnUse">
<stop stop-color="#EAEAEA"/>
<stop offset="1" stop-color="#F3F3F3"/>
</linearGradient>
<linearGradient id="paint9_linear_43_35313" x1="60.1871" y1="7.98177" x2="52.671" y2="19.2573" gradientUnits="userSpaceOnUse">
<stop stop-color="#EAEAEA"/>
<stop offset="1" stop-color="#F3F3F3"/>
</linearGradient>
<linearGradient id="paint10_linear_43_35313" x1="-1.28511" y1="19.8558" x2="-8.80122" y2="31.1313" gradientUnits="userSpaceOnUse">
<stop stop-color="#EAEAEA"/>
<stop offset="1" stop-color="#F3F3F3"/>
</linearGradient>
<linearGradient id="paint11_linear_43_35313" x1="26.0352" y1="43.512" x2="18.5191" y2="54.7876" gradientUnits="userSpaceOnUse">
<stop stop-color="#EAEAEA"/>
<stop offset="1" stop-color="#F3F3F3"/>
</linearGradient>
<linearGradient id="paint12_linear_43_35313" x1="26.0352" y1="19.8558" x2="18.5191" y2="31.1313" gradientUnits="userSpaceOnUse">
<stop stop-color="#EAEAEA"/>
<stop offset="1" stop-color="#F3F3F3"/>
</linearGradient>
<linearGradient id="paint13_linear_43_35313" x1="26.0352" y1="-3.7946" x2="18.5191" y2="7.48094" gradientUnits="userSpaceOnUse">
<stop stop-color="#EAEAEA"/>
<stop offset="1" stop-color="#F3F3F3"/>
</linearGradient>
<linearGradient id="paint14_linear_43_35313" x1="12.3553" y1="43.4779" x2="4.83922" y2="54.7534" gradientUnits="userSpaceOnUse">
<stop stop-color="#EAEAEA"/>
<stop offset="1" stop-color="#F3F3F3"/>
</linearGradient>
<linearGradient id="paint15_linear_43_35313" x1="12.3553" y1="19.8226" x2="4.83922" y2="31.0981" gradientUnits="userSpaceOnUse">
<stop stop-color="#EAEAEA"/>
<stop offset="1" stop-color="#F3F3F3"/>
</linearGradient>
<linearGradient id="paint16_linear_43_35313" x1="12.3553" y1="-3.8278" x2="4.83922" y2="7.44774" gradientUnits="userSpaceOnUse">
<stop stop-color="#EAEAEA"/>
<stop offset="1" stop-color="#F3F3F3"/>
</linearGradient>
<linearGradient id="paint17_linear_43_35313" x1="39.6736" y1="43.4779" x2="32.1575" y2="54.7534" gradientUnits="userSpaceOnUse">
<stop stop-color="#EAEAEA"/>
<stop offset="1" stop-color="#F3F3F3"/>
</linearGradient>
<linearGradient id="paint18_linear_43_35313" x1="53.3534" y1="43.4779" x2="45.8373" y2="54.7534" gradientUnits="userSpaceOnUse">
<stop stop-color="#EAEAEA"/>
<stop offset="1" stop-color="#F3F3F3"/>
</linearGradient>
<linearGradient id="paint19_linear_43_35313" x1="39.6736" y1="19.8226" x2="32.1575" y2="31.0981" gradientUnits="userSpaceOnUse">
<stop stop-color="#EAEAEA"/>
<stop offset="1" stop-color="#F3F3F3"/>
</linearGradient>
<linearGradient id="paint20_linear_43_35313" x1="39.6736" y1="-3.8278" x2="32.1575" y2="7.44774" gradientUnits="userSpaceOnUse">
<stop stop-color="#EAEAEA"/>
<stop offset="1" stop-color="#F3F3F3"/>
</linearGradient>
<linearGradient id="paint21_linear_43_35313" x1="53.3534" y1="19.8226" x2="45.8373" y2="31.0981" gradientUnits="userSpaceOnUse">
<stop stop-color="#EAEAEA"/>
<stop offset="1" stop-color="#F3F3F3"/>
</linearGradient>
<linearGradient id="paint22_linear_43_35313" x1="53.3534" y1="-3.8278" x2="45.8373" y2="7.44774" gradientUnits="userSpaceOnUse">
<stop stop-color="#EAEAEA"/>
<stop offset="1" stop-color="#F3F3F3"/>
</linearGradient>
<linearGradient id="paint23_linear_43_35313" x1="10.3717" y1="32.3527" x2="41.0698" y2="28.8174" gradientUnits="userSpaceOnUse">
<stop stop-color="#CB533E"/>
<stop offset="0.301589" stop-color="#DC1F31"/>
<stop offset="0.668524" stop-color="#7B2360"/>
<stop offset="0.787432" stop-color="#372D76"/>
<stop offset="1" stop-color="#086394"/>
</linearGradient>
</defs>
</svg>
