<svg width="45" height="59" viewBox="0 0 45 59" fill="none" xmlns="http://www.w3.org/2000/svg">
<path d="M22.4762 2.95431e-08C16.5539 -0.000310899 10.8708 2.45368 6.66206 6.82861C2.45336 11.2035 0.0592232 17.1458 0 23.3639C0 39.5299 19.8071 57.5248 20.65 58.2918C21.1589 58.7489 21.8065 59 22.4762 59C23.1458 59 23.7935 58.7489 24.3024 58.2918C25.2857 57.5248 44.9524 39.5299 44.9524 23.3639C44.8932 17.1458 42.499 11.2035 38.2903 6.82861C34.0816 2.45368 28.3985 -0.000310899 22.4762 2.95431e-08Z" fill="#DC1010"/>
<path fill-rule="evenodd" clip-rule="evenodd" d="M27.4662 12L27.6268 12.2782L32.5046 20.7269L32.6692 21.012L32.6682 21.0137L32.7001 21.0691L36.9047 28.3517L37.0654 28.6299L36.9047 28.9081L32.7001 36.1908L32.5395 36.469H32.2182H23.8089H23.4877L23.3271 36.1908L22.2704 34.3606L21.2138 36.1908L21.0531 36.469H20.7319H12.3226H12.0014L11.8407 36.1908L7.63609 28.9081L7.47546 28.6299L7.63609 28.3517L11.8407 21.0691L11.8694 21.0194L11.8649 21.012L12.0295 20.7269L16.9073 12.2782L17.068 12H17.3892H27.1449H27.4662ZM27.9402 15.0467L31.2566 20.7909L23.8089 20.7909H23.4877L23.3271 21.0691L22.2704 22.8992L21.2138 21.0691L21.0531 20.7909L20.7319 20.7909L13.2776 20.7909L16.594 15.0467H27.9402ZM27.2977 13.9339L26.8237 13.1128L17.7105 13.1128L17.2364 13.9339H27.2977ZM8.76045 28.6299L9.45549 27.4261L14.0866 35.3562H12.6439L8.76045 28.6299ZM15.3753 35.3562L10.0962 26.3164L12.5275 22.1052L16.9133 29.342L17.0757 29.61H17.3891H19.5276L21.6279 33.2478L20.4107 35.3562L15.3753 35.3562ZM17.7025 28.4972H19.0384L19.1224 28.3517L21.6279 24.0121L20.4107 21.9037L13.7066 21.9037L17.7025 28.4972ZM22.2704 32.135L20.8126 29.61H23.7282L22.2704 32.135ZM22.2704 25.1249L20.3234 28.4972H24.2174L22.2704 25.1249ZM25.4184 28.3517L25.5024 28.4972H26.8314L30.8275 21.9037L24.1302 21.9037L22.9129 24.0121L25.4184 28.3517ZM27.1448 29.61H25.0132L22.9129 33.2478L24.1302 35.3562L29.3571 35.3562L34.5399 26.4814L32.0101 22.0996L27.6207 29.342L27.4582 29.61H27.1448ZM35.1806 27.5911L30.6458 35.3562H31.897L35.7804 28.6299L35.1806 27.5911Z" fill="white"/>
</svg>
