<svg width="17" height="20" viewBox="0 0 17 20" fill="none" xmlns="http://www.w3.org/2000/svg">
<g id="material-symbols:shield-outline">
<path id="Vector" d="M8.47729 20C6.16063 19.4167 4.24796 18.0873 2.7393 16.012C1.23063 13.9367 0.476629 11.6327 0.477295 9.1V3L8.47729 0L16.4773 3V9.1C16.4773 11.6333 15.723 13.9377 14.2143 16.013C12.7056 18.0883 10.7933 19.4173 8.47729 20ZM8.47729 17.9C10.2106 17.35 11.644 16.25 12.7773 14.6C13.9106 12.95 14.4773 11.1167 14.4773 9.1V4.375L8.47729 2.125L2.4773 4.375V9.1C2.4773 11.1167 3.04396 12.95 4.1773 14.6C5.31063 16.25 6.74396 17.35 8.47729 17.9Z" fill="white"/>
</g>
</svg>
