<svg width="20" height="22" viewBox="0 0 20 22" fill="none" xmlns="http://www.w3.org/2000/svg">
<g id="solar:like-line-duotone">
<g id="Group">
<path id="Vector" d="M9.51605 1.13104L9.19005 0.456039L9.51505 1.13104H9.51605ZM18.077 11.056L17.371 15.136L18.85 15.392L19.555 11.312L18.077 11.056ZM11.086 20.249H6.43705V21.749H11.086V20.249ZM5.52605 19.412L4.71405 10.019L3.21905 10.148L4.03205 19.541L5.52605 19.412ZM17.371 15.136C16.864 18.066 14.222 20.249 11.086 20.249V21.749C14.912 21.749 18.212 19.08 18.85 15.392L17.371 15.136ZM11.096 4.09904L10.433 8.14404L11.913 8.38604L12.576 4.34204L11.096 4.09904ZM5.02905 9.24504L6.46805 8.00504L5.48805 6.86904L4.05105 8.10904L5.02905 9.24504ZM9.08505 3.97104L9.56105 2.13704L8.10905 1.76104L7.63305 3.59404L9.08505 3.97104ZM10.279 1.77704L10.424 1.82404L10.883 0.396039L10.738 0.349039L10.279 1.77704ZM8.36405 5.81504C8.67642 5.23103 8.91845 4.61204 9.08505 3.97104L7.63305 3.59404C7.49633 4.12068 7.29761 4.62923 7.04105 5.10904L8.36505 5.81504H8.36405ZM10.424 1.82404C10.5667 1.86728 10.6962 1.94587 10.8004 2.05251C10.9046 2.15915 10.9801 2.29039 11.02 2.43404L12.472 2.05804C12.3687 1.66939 12.1687 1.3132 11.8907 1.02261C11.6127 0.732017 11.2667 0.516475 10.883 0.396039L10.424 1.82404ZM9.56105 2.13704C9.58092 2.06498 9.61626 1.99813 9.66462 1.94113C9.71298 1.88414 9.77319 1.83838 9.84105 1.80704L9.19005 0.456039C8.65805 0.712039 8.25805 1.18604 8.10905 1.76104L9.56105 2.13704ZM9.84105 1.80704C9.97791 1.74167 10.1345 1.73094 10.279 1.77704L10.738 0.349039C10.2274 0.185359 9.67336 0.223652 9.19005 0.456039L9.84005 1.80704H9.84105ZM11.995 9.98304H17.175V8.48304H11.995V9.98304ZM12.576 4.34204C12.7008 3.58177 12.6654 2.80383 12.472 2.05804L11.02 2.43504C11.161 2.97836 11.1869 3.54513 11.096 4.09904L12.576 4.34204ZM6.43705 20.249C6.20806 20.2486 5.98752 20.1625 5.8189 20.0076C5.65028 19.8526 5.5458 19.6402 5.52605 19.412L4.03205 19.541C4.08408 20.1432 4.35993 20.704 4.80515 21.1127C5.25038 21.5215 5.83264 21.7485 6.43705 21.749V20.249ZM6.46805 8.00504C7.14805 7.41904 7.88005 6.72204 8.36505 5.81504L7.04105 5.10904C6.69505 5.75804 6.14305 6.30504 5.48805 6.86904L6.46805 8.00504ZM19.555 11.312C19.6153 10.965 19.5989 10.609 19.507 10.269C19.4152 9.92902 19.2501 9.6132 19.0234 9.34369C18.7966 9.07419 18.5137 8.85751 18.1945 8.70884C17.8752 8.56017 17.5272 8.4831 17.175 8.48304V9.98304C17.742 9.98304 18.175 10.495 18.077 11.056L19.555 11.312ZM10.433 8.14404C10.3958 8.37062 10.4082 8.6026 10.4696 8.82388C10.5309 9.04516 10.6396 9.25045 10.7882 9.42551C10.9369 9.60056 11.1218 9.74119 11.3302 9.83764C11.5385 9.93408 11.7654 9.98304 11.995 9.98304V8.48304C11.9828 8.48309 11.9708 8.48146 11.9597 8.47632C11.9487 8.47118 11.9389 8.46366 11.931 8.4543C11.9232 8.44495 11.9175 8.43398 11.9144 8.42218C11.9113 8.41038 11.9108 8.39804 11.913 8.38604L10.433 8.14404ZM4.71405 10.019C4.70169 9.87422 4.72289 9.72854 4.77783 9.59398C4.83276 9.45942 4.91887 9.33983 5.02905 9.24504L4.04905 8.10804C3.75906 8.35807 3.5326 8.6734 3.38831 9.02806C3.24401 9.38272 3.186 9.76658 3.21905 10.148L4.71405 10.018V10.019Z" fill="white"/>
<path id="Vector_2" opacity="0.5" d="M1.81305 20.4694L1.06505 20.5354L1.81305 20.4704V20.4694ZM0.841049 9.23435L1.58805 9.17035C1.57083 8.97827 1.48028 8.8002 1.33521 8.67313C1.19014 8.54605 1.00169 8.47975 0.809009 8.48799C0.616329 8.49623 0.434227 8.57837 0.300527 8.71736C0.166828 8.85635 0.0918078 9.0415 0.0910492 9.23435H0.841049ZM2.56005 20.4064L1.58805 9.17035L0.0940492 9.29835L1.06505 20.5354L2.56005 20.4064ZM1.59105 20.5134V9.23335L0.0910492 9.23435V20.5124L1.59105 20.5134ZM1.06505 20.5354C1.062 20.499 1.06654 20.4624 1.07838 20.4279C1.09023 20.3934 1.10912 20.3618 1.13385 20.335C1.15858 20.3082 1.18862 20.2868 1.22205 20.2723C1.25548 20.2577 1.29158 20.2502 1.32805 20.2504V21.7504C2.05405 21.7504 2.62205 21.1284 2.56005 20.4064L1.06505 20.5364V20.5354ZM1.32805 20.2504C1.47405 20.2504 1.59105 20.3694 1.59105 20.5134L0.0910492 20.5124C0.0910492 21.1944 0.644049 21.7504 1.32805 21.7504V20.2504Z" fill="white"/>
</g>
</g>
</svg>
